<?xml version="1.0" encoding="utf-8" standalone="no"?>
<!DOCTYPE svg PUBLIC "-//W3C//DTD SVG 1.1//EN"
  "http://www.w3.org/Graphics/SVG/1.1/DTD/svg11.dtd">
<!-- Created with matplotlib (https://matplotlib.org/) -->
<svg height="432pt" version="1.1" viewBox="0 0 360 432" width="360pt" xmlns="http://www.w3.org/2000/svg" xmlns:xlink="http://www.w3.org/1999/xlink">
 <defs>
  <style type="text/css">
*{stroke-linecap:butt;stroke-linejoin:round;}
  </style>
 </defs>
 <g id="figure_1">
  <g id="patch_1">
   <path d="M 0 432 
L 360 432 
L 360 0 
L 0 0 
z
" style="fill:#ffffff;"/>
  </g>
  <g id="axes_1">
   <g id="patch_2">
    <path d="M 77.32 386.44 
L 339.75 386.44 
L 339.75 42.68 
L 77.32 42.68 
z
" style="fill:#ffffff;"/>
   </g>
   <g id="matplotlib.axis_1">
    <g id="xtick_1"/>
    <g id="xtick_2"/>
    <g id="xtick_3"/>
    <g id="xtick_4"/>
    <g id="xtick_5"/>
    <g id="xtick_6"/>
   </g>
   <g id="matplotlib.axis_2">
    <g id="ytick_1"/>
    <g id="ytick_2"/>
    <g id="ytick_3"/>
    <g id="ytick_4"/>
    <g id="ytick_5"/>
    <g id="ytick_6"/>
    <g id="text_1">
     <!-- Fraction of Ps selecting a learning activity -->
     <defs>
      <path d="M 9.8125 72.90625 
L 51.703125 72.90625 
L 51.703125 64.59375 
L 19.671875 64.59375 
L 19.671875 43.109375 
L 48.578125 43.109375 
L 48.578125 34.8125 
L 19.671875 34.8125 
L 19.671875 0 
L 9.8125 0 
z
" id="DejaVuSans-70"/>
      <path d="M 41.109375 46.296875 
Q 39.59375 47.171875 37.8125 47.578125 
Q 36.03125 48 33.890625 48 
Q 26.265625 48 22.1875 43.046875 
Q 18.109375 38.09375 18.109375 28.8125 
L 18.109375 0 
L 9.078125 0 
L 9.078125 54.6875 
L 18.109375 54.6875 
L 18.109375 46.1875 
Q 20.953125 51.171875 25.484375 53.578125 
Q 30.03125 56 36.53125 56 
Q 37.453125 56 38.578125 55.875 
Q 39.703125 55.765625 41.0625 55.515625 
z
" id="DejaVuSans-114"/>
      <path d="M 34.28125 27.484375 
Q 23.390625 27.484375 19.1875 25 
Q 14.984375 22.515625 14.984375 16.5 
Q 14.984375 11.71875 18.140625 8.90625 
Q 21.296875 6.109375 26.703125 6.109375 
Q 34.1875 6.109375 38.703125 11.40625 
Q 43.21875 16.703125 43.21875 25.484375 
L 43.21875 27.484375 
z
M 52.203125 31.203125 
L 52.203125 0 
L 43.21875 0 
L 43.21875 8.296875 
Q 40.140625 3.328125 35.546875 0.953125 
Q 30.953125 -1.421875 24.3125 -1.421875 
Q 15.921875 -1.421875 10.953125 3.296875 
Q 6 8.015625 6 15.921875 
Q 6 25.140625 12.171875 29.828125 
Q 18.359375 34.515625 30.609375 34.515625 
L 43.21875 34.515625 
L 43.21875 35.40625 
Q 43.21875 41.609375 39.140625 45 
Q 35.0625 48.390625 27.6875 48.390625 
Q 23 48.390625 18.546875 47.265625 
Q 14.109375 46.140625 10.015625 43.890625 
L 10.015625 52.203125 
Q 14.9375 54.109375 19.578125 55.046875 
Q 24.21875 56 28.609375 56 
Q 40.484375 56 46.34375 49.84375 
Q 52.203125 43.703125 52.203125 31.203125 
z
" id="DejaVuSans-97"/>
      <path d="M 48.78125 52.59375 
L 48.78125 44.1875 
Q 44.96875 46.296875 41.140625 47.34375 
Q 37.3125 48.390625 33.40625 48.390625 
Q 24.65625 48.390625 19.8125 42.84375 
Q 14.984375 37.3125 14.984375 27.296875 
Q 14.984375 17.28125 19.8125 11.734375 
Q 24.65625 6.203125 33.40625 6.203125 
Q 37.3125 6.203125 41.140625 7.25 
Q 44.96875 8.296875 48.78125 10.40625 
L 48.78125 2.09375 
Q 45.015625 0.34375 40.984375 -0.53125 
Q 36.96875 -1.421875 32.421875 -1.421875 
Q 20.0625 -1.421875 12.78125 6.34375 
Q 5.515625 14.109375 5.515625 27.296875 
Q 5.515625 40.671875 12.859375 48.328125 
Q 20.21875 56 33.015625 56 
Q 37.15625 56 41.109375 55.140625 
Q 45.0625 54.296875 48.78125 52.59375 
z
" id="DejaVuSans-99"/>
      <path d="M 18.3125 70.21875 
L 18.3125 54.6875 
L 36.8125 54.6875 
L 36.8125 47.703125 
L 18.3125 47.703125 
L 18.3125 18.015625 
Q 18.3125 11.328125 20.140625 9.421875 
Q 21.96875 7.515625 27.59375 7.515625 
L 36.8125 7.515625 
L 36.8125 0 
L 27.59375 0 
Q 17.1875 0 13.234375 3.875 
Q 9.28125 7.765625 9.28125 18.015625 
L 9.28125 47.703125 
L 2.6875 47.703125 
L 2.6875 54.6875 
L 9.28125 54.6875 
L 9.28125 70.21875 
z
" id="DejaVuSans-116"/>
      <path d="M 9.421875 54.6875 
L 18.40625 54.6875 
L 18.40625 0 
L 9.421875 0 
z
M 9.421875 75.984375 
L 18.40625 75.984375 
L 18.40625 64.59375 
L 9.421875 64.59375 
z
" id="DejaVuSans-105"/>
      <path d="M 30.609375 48.390625 
Q 23.390625 48.390625 19.1875 42.75 
Q 14.984375 37.109375 14.984375 27.296875 
Q 14.984375 17.484375 19.15625 11.84375 
Q 23.34375 6.203125 30.609375 6.203125 
Q 37.796875 6.203125 41.984375 11.859375 
Q 46.1875 17.53125 46.1875 27.296875 
Q 46.1875 37.015625 41.984375 42.703125 
Q 37.796875 48.390625 30.609375 48.390625 
z
M 30.609375 56 
Q 42.328125 56 49.015625 48.375 
Q 55.71875 40.765625 55.71875 27.296875 
Q 55.71875 13.875 49.015625 6.21875 
Q 42.328125 -1.421875 30.609375 -1.421875 
Q 18.84375 -1.421875 12.171875 6.21875 
Q 5.515625 13.875 5.515625 27.296875 
Q 5.515625 40.765625 12.171875 48.375 
Q 18.84375 56 30.609375 56 
z
" id="DejaVuSans-111"/>
      <path d="M 54.890625 33.015625 
L 54.890625 0 
L 45.90625 0 
L 45.90625 32.71875 
Q 45.90625 40.484375 42.875 44.328125 
Q 39.84375 48.1875 33.796875 48.1875 
Q 26.515625 48.1875 22.3125 43.546875 
Q 18.109375 38.921875 18.109375 30.90625 
L 18.109375 0 
L 9.078125 0 
L 9.078125 54.6875 
L 18.109375 54.6875 
L 18.109375 46.1875 
Q 21.34375 51.125 25.703125 53.5625 
Q 30.078125 56 35.796875 56 
Q 45.21875 56 50.046875 50.171875 
Q 54.890625 44.34375 54.890625 33.015625 
z
" id="DejaVuSans-110"/>
      <path id="DejaVuSans-32"/>
      <path d="M 37.109375 75.984375 
L 37.109375 68.5 
L 28.515625 68.5 
Q 23.6875 68.5 21.796875 66.546875 
Q 19.921875 64.59375 19.921875 59.515625 
L 19.921875 54.6875 
L 34.71875 54.6875 
L 34.71875 47.703125 
L 19.921875 47.703125 
L 19.921875 0 
L 10.890625 0 
L 10.890625 47.703125 
L 2.296875 47.703125 
L 2.296875 54.6875 
L 10.890625 54.6875 
L 10.890625 58.5 
Q 10.890625 67.625 15.140625 71.796875 
Q 19.390625 75.984375 28.609375 75.984375 
z
" id="DejaVuSans-102"/>
      <path d="M 19.671875 64.796875 
L 19.671875 37.40625 
L 32.078125 37.40625 
Q 38.96875 37.40625 42.71875 40.96875 
Q 46.484375 44.53125 46.484375 51.125 
Q 46.484375 57.671875 42.71875 61.234375 
Q 38.96875 64.796875 32.078125 64.796875 
z
M 9.8125 72.90625 
L 32.078125 72.90625 
Q 44.34375 72.90625 50.609375 67.359375 
Q 56.890625 61.8125 56.890625 51.125 
Q 56.890625 40.328125 50.609375 34.8125 
Q 44.34375 29.296875 32.078125 29.296875 
L 19.671875 29.296875 
L 19.671875 0 
L 9.8125 0 
z
" id="DejaVuSans-80"/>
      <path d="M 44.28125 53.078125 
L 44.28125 44.578125 
Q 40.484375 46.53125 36.375 47.5 
Q 32.28125 48.484375 27.875 48.484375 
Q 21.1875 48.484375 17.84375 46.4375 
Q 14.5 44.390625 14.5 40.28125 
Q 14.5 37.15625 16.890625 35.375 
Q 19.28125 33.59375 26.515625 31.984375 
L 29.59375 31.296875 
Q 39.15625 29.25 43.1875 25.515625 
Q 47.21875 21.78125 47.21875 15.09375 
Q 47.21875 7.46875 41.1875 3.015625 
Q 35.15625 -1.421875 24.609375 -1.421875 
Q 20.21875 -1.421875 15.453125 -0.5625 
Q 10.6875 0.296875 5.421875 2 
L 5.421875 11.28125 
Q 10.40625 8.6875 15.234375 7.390625 
Q 20.0625 6.109375 24.8125 6.109375 
Q 31.15625 6.109375 34.5625 8.28125 
Q 37.984375 10.453125 37.984375 14.40625 
Q 37.984375 18.0625 35.515625 20.015625 
Q 33.0625 21.96875 24.703125 23.78125 
L 21.578125 24.515625 
Q 13.234375 26.265625 9.515625 29.90625 
Q 5.8125 33.546875 5.8125 39.890625 
Q 5.8125 47.609375 11.28125 51.796875 
Q 16.75 56 26.8125 56 
Q 31.78125 56 36.171875 55.265625 
Q 40.578125 54.546875 44.28125 53.078125 
z
" id="DejaVuSans-115"/>
      <path d="M 56.203125 29.59375 
L 56.203125 25.203125 
L 14.890625 25.203125 
Q 15.484375 15.921875 20.484375 11.0625 
Q 25.484375 6.203125 34.421875 6.203125 
Q 39.59375 6.203125 44.453125 7.46875 
Q 49.3125 8.734375 54.109375 11.28125 
L 54.109375 2.78125 
Q 49.265625 0.734375 44.1875 -0.34375 
Q 39.109375 -1.421875 33.890625 -1.421875 
Q 20.796875 -1.421875 13.15625 6.1875 
Q 5.515625 13.8125 5.515625 26.8125 
Q 5.515625 40.234375 12.765625 48.109375 
Q 20.015625 56 32.328125 56 
Q 43.359375 56 49.78125 48.890625 
Q 56.203125 41.796875 56.203125 29.59375 
z
M 47.21875 32.234375 
Q 47.125 39.59375 43.09375 43.984375 
Q 39.0625 48.390625 32.421875 48.390625 
Q 24.90625 48.390625 20.390625 44.140625 
Q 15.875 39.890625 15.1875 32.171875 
z
" id="DejaVuSans-101"/>
      <path d="M 9.421875 75.984375 
L 18.40625 75.984375 
L 18.40625 0 
L 9.421875 0 
z
" id="DejaVuSans-108"/>
      <path d="M 45.40625 27.984375 
Q 45.40625 37.75 41.375 43.109375 
Q 37.359375 48.484375 30.078125 48.484375 
Q 22.859375 48.484375 18.828125 43.109375 
Q 14.796875 37.75 14.796875 27.984375 
Q 14.796875 18.265625 18.828125 12.890625 
Q 22.859375 7.515625 30.078125 7.515625 
Q 37.359375 7.515625 41.375 12.890625 
Q 45.40625 18.265625 45.40625 27.984375 
z
M 54.390625 6.78125 
Q 54.390625 -7.171875 48.1875 -13.984375 
Q 42 -20.796875 29.203125 -20.796875 
Q 24.46875 -20.796875 20.265625 -20.09375 
Q 16.0625 -19.390625 12.109375 -17.921875 
L 12.109375 -9.1875 
Q 16.0625 -11.328125 19.921875 -12.34375 
Q 23.78125 -13.375 27.78125 -13.375 
Q 36.625 -13.375 41.015625 -8.765625 
Q 45.40625 -4.15625 45.40625 5.171875 
L 45.40625 9.625 
Q 42.625 4.78125 38.28125 2.390625 
Q 33.9375 0 27.875 0 
Q 17.828125 0 11.671875 7.65625 
Q 5.515625 15.328125 5.515625 27.984375 
Q 5.515625 40.671875 11.671875 48.328125 
Q 17.828125 56 27.875 56 
Q 33.9375 56 38.28125 53.609375 
Q 42.625 51.21875 45.40625 46.390625 
L 45.40625 54.6875 
L 54.390625 54.6875 
z
" id="DejaVuSans-103"/>
      <path d="M 2.984375 54.6875 
L 12.5 54.6875 
L 29.59375 8.796875 
L 46.6875 54.6875 
L 56.203125 54.6875 
L 35.6875 0 
L 23.484375 0 
z
" id="DejaVuSans-118"/>
      <path d="M 32.171875 -5.078125 
Q 28.375 -14.84375 24.75 -17.8125 
Q 21.140625 -20.796875 15.09375 -20.796875 
L 7.90625 -20.796875 
L 7.90625 -13.28125 
L 13.1875 -13.28125 
Q 16.890625 -13.28125 18.9375 -11.515625 
Q 21 -9.765625 23.484375 -3.21875 
L 25.09375 0.875 
L 2.984375 54.6875 
L 12.5 54.6875 
L 29.59375 11.921875 
L 46.6875 54.6875 
L 56.203125 54.6875 
z
" id="DejaVuSans-121"/>
     </defs>
     <g transform="translate(44.408437 360.617188)rotate(-90)scale(0.14 -0.14)">
      <use xlink:href="#DejaVuSans-70"/>
      <use x="50.269531" xlink:href="#DejaVuSans-114"/>
      <use x="91.382812" xlink:href="#DejaVuSans-97"/>
      <use x="152.662109" xlink:href="#DejaVuSans-99"/>
      <use x="207.642578" xlink:href="#DejaVuSans-116"/>
      <use x="246.851562" xlink:href="#DejaVuSans-105"/>
      <use x="274.634766" xlink:href="#DejaVuSans-111"/>
      <use x="335.816406" xlink:href="#DejaVuSans-110"/>
      <use x="399.195312" xlink:href="#DejaVuSans-32"/>
      <use x="430.982422" xlink:href="#DejaVuSans-111"/>
      <use x="492.164062" xlink:href="#DejaVuSans-102"/>
      <use x="527.369141" xlink:href="#DejaVuSans-32"/>
      <use x="559.15625" xlink:href="#DejaVuSans-80"/>
      <use x="617.708984" xlink:href="#DejaVuSans-115"/>
      <use x="669.808594" xlink:href="#DejaVuSans-32"/>
      <use x="701.595703" xlink:href="#DejaVuSans-115"/>
      <use x="753.695312" xlink:href="#DejaVuSans-101"/>
      <use x="815.21875" xlink:href="#DejaVuSans-108"/>
      <use x="843.001953" xlink:href="#DejaVuSans-101"/>
      <use x="904.525391" xlink:href="#DejaVuSans-99"/>
      <use x="959.505859" xlink:href="#DejaVuSans-116"/>
      <use x="998.714844" xlink:href="#DejaVuSans-105"/>
      <use x="1026.498047" xlink:href="#DejaVuSans-110"/>
      <use x="1089.876953" xlink:href="#DejaVuSans-103"/>
      <use x="1153.353516" xlink:href="#DejaVuSans-32"/>
      <use x="1185.140625" xlink:href="#DejaVuSans-97"/>
      <use x="1246.419922" xlink:href="#DejaVuSans-32"/>
      <use x="1278.207031" xlink:href="#DejaVuSans-108"/>
      <use x="1305.990234" xlink:href="#DejaVuSans-101"/>
      <use x="1367.513672" xlink:href="#DejaVuSans-97"/>
      <use x="1428.792969" xlink:href="#DejaVuSans-114"/>
      <use x="1468.15625" xlink:href="#DejaVuSans-110"/>
      <use x="1531.535156" xlink:href="#DejaVuSans-105"/>
      <use x="1559.318359" xlink:href="#DejaVuSans-110"/>
      <use x="1622.697266" xlink:href="#DejaVuSans-103"/>
      <use x="1686.173828" xlink:href="#DejaVuSans-32"/>
      <use x="1717.960938" xlink:href="#DejaVuSans-97"/>
      <use x="1779.240234" xlink:href="#DejaVuSans-99"/>
      <use x="1834.220703" xlink:href="#DejaVuSans-116"/>
      <use x="1873.429688" xlink:href="#DejaVuSans-105"/>
      <use x="1901.212891" xlink:href="#DejaVuSans-118"/>
      <use x="1960.392578" xlink:href="#DejaVuSans-105"/>
      <use x="1988.175781" xlink:href="#DejaVuSans-116"/>
      <use x="2027.384766" xlink:href="#DejaVuSans-121"/>
     </g>
    </g>
   </g>
  </g>
  <g id="axes_2">
   <g id="patch_3">
    <path d="M 77.32 205.43 
L 339.75 205.43 
L 339.75 42.68 
L 77.32 42.68 
z
" style="fill:#ffffff;"/>
   </g>
   <g id="matplotlib.axis_3">
    <g id="xtick_7">
     <g id="line2d_1">
      <path clip-path="url(#p24bed2897a)" d="M 128.962851 205.43 
L 128.962851 42.68 
" style="fill:none;stroke:#808080;stroke-dasharray:0.8,1.32;stroke-dashoffset:0;stroke-width:0.8;"/>
     </g>
     <g id="line2d_2">
      <defs>
       <path d="M 0 0 
L 0 3.5 
" id="me78f822df5" style="stroke:#000000;stroke-width:0.8;"/>
      </defs>
      <g>
       <use style="stroke:#000000;stroke-width:0.8;" x="128.962851" xlink:href="#me78f822df5" y="205.43"/>
      </g>
     </g>
    </g>
    <g id="xtick_8">
     <g id="line2d_3">
      <path clip-path="url(#p24bed2897a)" d="M 181.659639 205.43 
L 181.659639 42.68 
" style="fill:none;stroke:#808080;stroke-dasharray:0.8,1.32;stroke-dashoffset:0;stroke-width:0.8;"/>
     </g>
     <g id="line2d_4">
      <g>
       <use style="stroke:#000000;stroke-width:0.8;" x="181.659639" xlink:href="#me78f822df5" y="205.43"/>
      </g>
     </g>
    </g>
    <g id="xtick_9">
     <g id="line2d_5">
      <path clip-path="url(#p24bed2897a)" d="M 234.356426 205.43 
L 234.356426 42.68 
" style="fill:none;stroke:#808080;stroke-dasharray:0.8,1.32;stroke-dashoffset:0;stroke-width:0.8;"/>
     </g>
     <g id="line2d_6">
      <g>
       <use style="stroke:#000000;stroke-width:0.8;" x="234.356426" xlink:href="#me78f822df5" y="205.43"/>
      </g>
     </g>
    </g>
    <g id="xtick_10">
     <g id="line2d_7">
      <path clip-path="url(#p24bed2897a)" d="M 287.053213 205.43 
L 287.053213 42.68 
" style="fill:none;stroke:#808080;stroke-dasharray:0.8,1.32;stroke-dashoffset:0;stroke-width:0.8;"/>
     </g>
     <g id="line2d_8">
      <g>
       <use style="stroke:#000000;stroke-width:0.8;" x="287.053213" xlink:href="#me78f822df5" y="205.43"/>
      </g>
     </g>
    </g>
    <g id="xtick_11">
     <g id="line2d_9">
      <path clip-path="url(#p24bed2897a)" d="M 339.75 205.43 
L 339.75 42.68 
" style="fill:none;stroke:#808080;stroke-dasharray:0.8,1.32;stroke-dashoffset:0;stroke-width:0.8;"/>
     </g>
     <g id="line2d_10">
      <g>
       <use style="stroke:#000000;stroke-width:0.8;" x="339.75" xlink:href="#me78f822df5" y="205.43"/>
      </g>
     </g>
    </g>
   </g>
   <g id="matplotlib.axis_4">
    <g id="ytick_7">
     <g id="line2d_11">
      <path clip-path="url(#p24bed2897a)" d="M 77.32 197.68 
L 339.75 197.68 
" style="fill:none;stroke:#808080;stroke-dasharray:0.8,1.32;stroke-dashoffset:0;stroke-width:0.8;"/>
     </g>
     <g id="line2d_12">
      <defs>
       <path d="M 0 0 
L -3.5 0 
" id="m9ceab48a68" style="stroke:#000000;stroke-width:0.8;"/>
      </defs>
      <g>
       <use style="stroke:#000000;stroke-width:0.8;" x="77.32" xlink:href="#m9ceab48a68" y="197.68"/>
      </g>
     </g>
     <g id="text_2">
      <!-- 0.1 -->
      <defs>
       <path d="M 31.78125 66.40625 
Q 24.171875 66.40625 20.328125 58.90625 
Q 16.5 51.421875 16.5 36.375 
Q 16.5 21.390625 20.328125 13.890625 
Q 24.171875 6.390625 31.78125 6.390625 
Q 39.453125 6.390625 43.28125 13.890625 
Q 47.125 21.390625 47.125 36.375 
Q 47.125 51.421875 43.28125 58.90625 
Q 39.453125 66.40625 31.78125 66.40625 
z
M 31.78125 74.21875 
Q 44.046875 74.21875 50.515625 64.515625 
Q 56.984375 54.828125 56.984375 36.375 
Q 56.984375 17.96875 50.515625 8.265625 
Q 44.046875 -1.421875 31.78125 -1.421875 
Q 19.53125 -1.421875 13.0625 8.265625 
Q 6.59375 17.96875 6.59375 36.375 
Q 6.59375 54.828125 13.0625 64.515625 
Q 19.53125 74.21875 31.78125 74.21875 
z
" id="DejaVuSans-48"/>
       <path d="M 10.6875 12.40625 
L 21 12.40625 
L 21 0 
L 10.6875 0 
z
" id="DejaVuSans-46"/>
       <path d="M 12.40625 8.296875 
L 28.515625 8.296875 
L 28.515625 63.921875 
L 10.984375 60.40625 
L 10.984375 69.390625 
L 28.421875 72.90625 
L 38.28125 72.90625 
L 38.28125 8.296875 
L 54.390625 8.296875 
L 54.390625 0 
L 12.40625 0 
z
" id="DejaVuSans-49"/>
      </defs>
      <g transform="translate(54.416875 201.479219)scale(0.1 -0.1)">
       <use xlink:href="#DejaVuSans-48"/>
       <use x="63.623047" xlink:href="#DejaVuSans-46"/>
       <use x="95.410156" xlink:href="#DejaVuSans-49"/>
      </g>
     </g>
    </g>
    <g id="ytick_8">
     <g id="line2d_13">
      <path clip-path="url(#p24bed2897a)" d="M 77.32 158.93 
L 339.75 158.93 
" style="fill:none;stroke:#808080;stroke-dasharray:0.8,1.32;stroke-dashoffset:0;stroke-width:0.8;"/>
     </g>
     <g id="line2d_14">
      <g>
       <use style="stroke:#000000;stroke-width:0.8;" x="77.32" xlink:href="#m9ceab48a68" y="158.93"/>
      </g>
     </g>
     <g id="text_3">
      <!-- 0.2 -->
      <defs>
       <path d="M 19.1875 8.296875 
L 53.609375 8.296875 
L 53.609375 0 
L 7.328125 0 
L 7.328125 8.296875 
Q 12.9375 14.109375 22.625 23.890625 
Q 32.328125 33.6875 34.8125 36.53125 
Q 39.546875 41.84375 41.421875 45.53125 
Q 43.3125 49.21875 43.3125 52.78125 
Q 43.3125 58.59375 39.234375 62.25 
Q 35.15625 65.921875 28.609375 65.921875 
Q 23.96875 65.921875 18.8125 64.3125 
Q 13.671875 62.703125 7.8125 59.421875 
L 7.8125 69.390625 
Q 13.765625 71.78125 18.9375 73 
Q 24.125 74.21875 28.421875 74.21875 
Q 39.75 74.21875 46.484375 68.546875 
Q 53.21875 62.890625 53.21875 53.421875 
Q 53.21875 48.921875 51.53125 44.890625 
Q 49.859375 40.875 45.40625 35.40625 
Q 44.1875 33.984375 37.640625 27.21875 
Q 31.109375 20.453125 19.1875 8.296875 
z
" id="DejaVuSans-50"/>
      </defs>
      <g transform="translate(54.416875 162.729219)scale(0.1 -0.1)">
       <use xlink:href="#DejaVuSans-48"/>
       <use x="63.623047" xlink:href="#DejaVuSans-46"/>
       <use x="95.410156" xlink:href="#DejaVuSans-50"/>
      </g>
     </g>
    </g>
    <g id="ytick_9">
     <g id="line2d_15">
      <path clip-path="url(#p24bed2897a)" d="M 77.32 120.18 
L 339.75 120.18 
" style="fill:none;stroke:#808080;stroke-dasharray:0.8,1.32;stroke-dashoffset:0;stroke-width:0.8;"/>
     </g>
     <g id="line2d_16">
      <g>
       <use style="stroke:#000000;stroke-width:0.8;" x="77.32" xlink:href="#m9ceab48a68" y="120.18"/>
      </g>
     </g>
     <g id="text_4">
      <!-- 0.3 -->
      <defs>
       <path d="M 40.578125 39.3125 
Q 47.65625 37.796875 51.625 33 
Q 55.609375 28.21875 55.609375 21.1875 
Q 55.609375 10.40625 48.1875 4.484375 
Q 40.765625 -1.421875 27.09375 -1.421875 
Q 22.515625 -1.421875 17.65625 -0.515625 
Q 12.796875 0.390625 7.625 2.203125 
L 7.625 11.71875 
Q 11.71875 9.328125 16.59375 8.109375 
Q 21.484375 6.890625 26.8125 6.890625 
Q 36.078125 6.890625 40.9375 10.546875 
Q 45.796875 14.203125 45.796875 21.1875 
Q 45.796875 27.640625 41.28125 31.265625 
Q 36.765625 34.90625 28.71875 34.90625 
L 20.21875 34.90625 
L 20.21875 43.015625 
L 29.109375 43.015625 
Q 36.375 43.015625 40.234375 45.921875 
Q 44.09375 48.828125 44.09375 54.296875 
Q 44.09375 59.90625 40.109375 62.90625 
Q 36.140625 65.921875 28.71875 65.921875 
Q 24.65625 65.921875 20.015625 65.03125 
Q 15.375 64.15625 9.8125 62.3125 
L 9.8125 71.09375 
Q 15.4375 72.65625 20.34375 73.4375 
Q 25.25 74.21875 29.59375 74.21875 
Q 40.828125 74.21875 47.359375 69.109375 
Q 53.90625 64.015625 53.90625 55.328125 
Q 53.90625 49.265625 50.4375 45.09375 
Q 46.96875 40.921875 40.578125 39.3125 
z
" id="DejaVuSans-51"/>
      </defs>
      <g transform="translate(54.416875 123.979219)scale(0.1 -0.1)">
       <use xlink:href="#DejaVuSans-48"/>
       <use x="63.623047" xlink:href="#DejaVuSans-46"/>
       <use x="95.410156" xlink:href="#DejaVuSans-51"/>
      </g>
     </g>
    </g>
    <g id="ytick_10">
     <g id="line2d_17">
      <path clip-path="url(#p24bed2897a)" d="M 77.32 81.43 
L 339.75 81.43 
" style="fill:none;stroke:#808080;stroke-dasharray:0.8,1.32;stroke-dashoffset:0;stroke-width:0.8;"/>
     </g>
     <g id="line2d_18">
      <g>
       <use style="stroke:#000000;stroke-width:0.8;" x="77.32" xlink:href="#m9ceab48a68" y="81.43"/>
      </g>
     </g>
     <g id="text_5">
      <!-- 0.4 -->
      <defs>
       <path d="M 37.796875 64.3125 
L 12.890625 25.390625 
L 37.796875 25.390625 
z
M 35.203125 72.90625 
L 47.609375 72.90625 
L 47.609375 25.390625 
L 58.015625 25.390625 
L 58.015625 17.1875 
L 47.609375 17.1875 
L 47.609375 0 
L 37.796875 0 
L 37.796875 17.1875 
L 4.890625 17.1875 
L 4.890625 26.703125 
z
" id="DejaVuSans-52"/>
      </defs>
      <g transform="translate(54.416875 85.229219)scale(0.1 -0.1)">
       <use xlink:href="#DejaVuSans-48"/>
       <use x="63.623047" xlink:href="#DejaVuSans-46"/>
       <use x="95.410156" xlink:href="#DejaVuSans-52"/>
      </g>
     </g>
    </g>
    <g id="ytick_11">
     <g id="line2d_19">
      <path clip-path="url(#p24bed2897a)" d="M 77.32 42.68 
L 339.75 42.68 
" style="fill:none;stroke:#808080;stroke-dasharray:0.8,1.32;stroke-dashoffset:0;stroke-width:0.8;"/>
     </g>
     <g id="line2d_20">
      <g>
       <use style="stroke:#000000;stroke-width:0.8;" x="77.32" xlink:href="#m9ceab48a68" y="42.68"/>
      </g>
     </g>
     <g id="text_6">
      <!-- 0.5 -->
      <defs>
       <path d="M 10.796875 72.90625 
L 49.515625 72.90625 
L 49.515625 64.59375 
L 19.828125 64.59375 
L 19.828125 46.734375 
Q 21.96875 47.46875 24.109375 47.828125 
Q 26.265625 48.1875 28.421875 48.1875 
Q 40.625 48.1875 47.75 41.5 
Q 54.890625 34.8125 54.890625 23.390625 
Q 54.890625 11.625 47.5625 5.09375 
Q 40.234375 -1.421875 26.90625 -1.421875 
Q 22.3125 -1.421875 17.546875 -0.640625 
Q 12.796875 0.140625 7.71875 1.703125 
L 7.71875 11.625 
Q 12.109375 9.234375 16.796875 8.0625 
Q 21.484375 6.890625 26.703125 6.890625 
Q 35.15625 6.890625 40.078125 11.328125 
Q 45.015625 15.765625 45.015625 23.390625 
Q 45.015625 31 40.078125 35.4375 
Q 35.15625 39.890625 26.703125 39.890625 
Q 22.75 39.890625 18.8125 39.015625 
Q 14.890625 38.140625 10.796875 36.28125 
z
" id="DejaVuSans-53"/>
      </defs>
      <g transform="translate(54.416875 46.479219)scale(0.1 -0.1)">
       <use xlink:href="#DejaVuSans-48"/>
       <use x="63.623047" xlink:href="#DejaVuSans-46"/>
       <use x="95.410156" xlink:href="#DejaVuSans-53"/>
      </g>
     </g>
    </g>
   </g>
   <g id="line2d_21">
    <path clip-path="url(#p24bed2897a)" d="M 76.266064 132.949886 
L 77.32 132.949886 
L 78.373936 135.151591 
L 79.427871 135.151591 
L 80.481807 137.353295 
L 82.589679 146.160114 
L 83.643614 148.361818 
L 84.69755 154.966932 
L 85.751486 152.765227 
L 86.805422 159.370341 
L 87.859357 163.77375 
L 88.913293 165.975455 
L 89.967229 163.77375 
L 91.021165 163.77375 
L 92.0751 168.177159 
L 94.182972 168.177159 
L 96.290843 163.77375 
L 97.344779 165.975455 
L 98.398715 163.77375 
L 99.452651 165.975455 
L 100.506586 165.975455 
L 101.560522 157.168636 
L 102.614458 163.77375 
L 103.668394 168.177159 
L 104.722329 161.572045 
L 105.776265 163.77375 
L 107.884137 163.77375 
L 108.938072 161.572045 
L 111.045944 165.975455 
L 112.09988 165.975455 
L 113.153815 163.77375 
L 114.207751 163.77375 
L 115.261687 161.572045 
L 117.369558 170.378864 
L 119.47743 170.378864 
L 120.531365 172.580568 
L 121.585301 172.580568 
L 122.639237 176.983977 
L 123.693173 170.378864 
L 124.747108 165.975455 
L 125.801044 163.77375 
L 126.85498 163.77375 
L 127.908916 161.572045 
L 128.962851 174.782273 
L 130.016787 179.185682 
L 131.070723 179.185682 
L 132.124659 181.387386 
L 135.286466 174.782273 
L 137.394337 179.185682 
L 138.448273 179.185682 
L 139.502209 174.782273 
L 140.556145 172.580568 
L 141.61008 174.782273 
L 142.664016 172.580568 
L 143.717952 179.185682 
L 144.771888 179.185682 
L 146.879759 170.378864 
L 147.933695 174.782273 
L 148.987631 172.580568 
L 150.041566 176.983977 
L 151.095502 174.782273 
L 152.149438 176.983977 
L 153.203373 170.378864 
L 154.257309 172.580568 
L 155.311245 179.185682 
L 156.365181 176.983977 
L 157.419116 172.580568 
L 158.473052 172.580568 
L 159.526988 174.782273 
L 160.580924 179.185682 
L 161.634859 179.185682 
L 166.904538 190.194205 
L 170.066345 190.194205 
L 171.120281 183.589091 
L 172.174217 183.589091 
L 174.282088 179.185682 
L 175.336024 179.185682 
L 178.497831 172.580568 
L 179.551767 165.975455 
L 180.605703 168.177159 
L 181.659639 168.177159 
L 183.76751 172.580568 
L 184.821446 170.378864 
L 185.875382 172.580568 
L 186.929317 176.983977 
L 187.983253 176.983977 
L 189.037189 179.185682 
L 190.091124 183.589091 
L 191.14506 183.589091 
L 192.198996 181.387386 
L 193.252932 181.387386 
L 195.360803 185.790795 
L 196.414739 190.194205 
L 197.468675 190.194205 
L 198.52261 187.9925 
L 199.576546 187.9925 
L 200.630482 185.790795 
L 201.684418 185.790795 
L 202.738353 187.9925 
L 203.792289 185.790795 
L 204.846225 181.387386 
L 205.900161 174.782273 
L 210.115904 165.975455 
L 213.277711 165.975455 
L 214.331647 168.177159 
L 215.385582 172.580568 
L 216.439518 172.580568 
L 217.493454 170.378864 
L 218.54739 172.580568 
L 219.601325 172.580568 
L 220.655261 181.387386 
L 221.709197 181.387386 
L 222.763133 183.589091 
L 223.817068 187.9925 
L 224.871004 194.597614 
L 225.92494 199.001023 
L 226.978876 199.001023 
L 228.032811 196.799318 
L 230.140683 196.799318 
L 231.194618 187.9925 
L 234.356426 181.387386 
L 235.410361 183.589091 
L 236.464297 192.395909 
L 237.518233 192.395909 
L 238.572169 190.194205 
L 240.68004 181.387386 
L 241.733976 181.387386 
L 242.787912 183.589091 
L 243.841847 181.387386 
L 244.895783 181.387386 
L 247.003655 185.790795 
L 248.05759 183.589091 
L 249.111526 179.185682 
L 250.165462 176.983977 
L 251.219398 179.185682 
L 253.327269 174.782273 
L 254.381205 176.983977 
L 255.435141 172.580568 
L 257.543012 172.580568 
L 258.596948 168.177159 
L 259.650884 165.975455 
L 260.704819 161.572045 
L 263.866627 161.572045 
L 264.920562 163.77375 
L 265.974498 159.370341 
L 267.028434 159.370341 
L 268.082369 163.77375 
L 269.136305 170.378864 
L 270.190241 168.177159 
L 277.567791 168.177159 
L 279.675663 172.580568 
L 281.783534 172.580568 
L 282.83747 174.782273 
L 283.891406 172.580568 
L 284.945341 179.185682 
L 285.999277 183.589091 
L 287.053213 181.387386 
L 288.107149 185.790795 
L 289.161084 183.589091 
L 290.21502 183.589091 
L 291.268956 181.387386 
L 292.322892 181.387386 
L 293.376827 176.983977 
L 297.59257 176.983977 
L 298.646506 172.580568 
L 299.700442 172.580568 
L 301.808313 176.983977 
L 302.862249 170.378864 
L 303.916185 170.378864 
L 304.97012 174.782273 
L 307.077992 174.782273 
L 310.239799 181.387386 
L 311.293735 174.782273 
L 313.401606 174.782273 
L 314.455542 172.580568 
L 315.509478 176.983977 
L 317.617349 176.983977 
L 318.671285 168.177159 
L 321.833092 174.782273 
L 322.887028 172.580568 
L 323.940964 172.580568 
L 324.9949 170.378864 
L 326.048835 172.580568 
L 327.102771 176.983977 
L 331.318514 176.983977 
L 332.37245 174.782273 
L 333.426386 176.983977 
L 334.480321 174.782273 
L 335.534257 174.782273 
L 336.588193 170.378864 
L 337.642129 168.177159 
L 338.696064 168.177159 
L 338.696064 168.177159 
" style="fill:none;stroke:#65c2a5;stroke-linecap:square;stroke-width:2;"/>
   </g>
   <g id="line2d_22">
    <path clip-path="url(#p24bed2897a)" d="M 76.266064 163.77375 
L 77.32 163.77375 
L 78.373936 161.572045 
L 80.481807 161.572045 
L 81.535743 163.77375 
L 83.643614 163.77375 
L 84.69755 159.370341 
L 85.751486 157.168636 
L 86.805422 150.563523 
L 89.967229 157.168636 
L 91.021165 154.966932 
L 92.0751 157.168636 
L 93.129036 157.168636 
L 95.236908 161.572045 
L 96.290843 159.370341 
L 97.344779 161.572045 
L 98.398715 157.168636 
L 99.452651 157.168636 
L 101.560522 161.572045 
L 102.614458 161.572045 
L 103.668394 159.370341 
L 104.722329 161.572045 
L 105.776265 154.966932 
L 106.830201 157.168636 
L 108.938072 152.765227 
L 109.992008 154.966932 
L 111.045944 148.361818 
L 112.09988 152.765227 
L 113.153815 152.765227 
L 114.207751 148.361818 
L 115.261687 146.160114 
L 116.315622 139.555 
L 117.369558 139.555 
L 118.423494 141.756705 
L 119.47743 137.353295 
L 120.531365 135.151591 
L 122.639237 126.344773 
L 123.693173 132.949886 
L 124.747108 135.151591 
L 126.85498 143.958409 
L 127.908916 141.756705 
L 128.962851 143.958409 
L 130.016787 135.151591 
L 132.124659 121.941364 
L 133.178594 128.546477 
L 134.23253 128.546477 
L 137.394337 135.151591 
L 138.448273 139.555 
L 139.502209 139.555 
L 140.556145 143.958409 
L 141.61008 146.160114 
L 142.664016 141.756705 
L 143.717952 139.555 
L 144.771888 139.555 
L 145.825823 146.160114 
L 146.879759 135.151591 
L 147.933695 128.546477 
L 148.987631 130.748182 
L 150.041566 130.748182 
L 151.095502 128.546477 
L 152.149438 135.151591 
L 153.203373 143.958409 
L 155.311245 139.555 
L 156.365181 146.160114 
L 157.419116 146.160114 
L 158.473052 150.563523 
L 159.526988 150.563523 
L 160.580924 152.765227 
L 161.634859 146.160114 
L 162.688795 143.958409 
L 163.742731 146.160114 
L 164.796667 146.160114 
L 165.850602 141.756705 
L 166.904538 143.958409 
L 167.958474 143.958409 
L 170.066345 139.555 
L 171.120281 143.958409 
L 172.174217 143.958409 
L 173.228153 146.160114 
L 174.282088 150.563523 
L 175.336024 146.160114 
L 176.38996 146.160114 
L 177.443896 150.563523 
L 178.497831 150.563523 
L 179.551767 152.765227 
L 180.605703 150.563523 
L 181.659639 157.168636 
L 182.713574 154.966932 
L 185.875382 161.572045 
L 186.929317 157.168636 
L 187.983253 161.572045 
L 189.037189 163.77375 
L 190.091124 159.370341 
L 192.198996 163.77375 
L 193.252932 163.77375 
L 195.360803 159.370341 
L 196.414739 161.572045 
L 197.468675 159.370341 
L 199.576546 168.177159 
L 200.630482 168.177159 
L 201.684418 170.378864 
L 204.846225 170.378864 
L 206.954096 174.782273 
L 210.115904 174.782273 
L 212.223775 165.975455 
L 213.277711 165.975455 
L 215.385582 170.378864 
L 216.439518 170.378864 
L 217.493454 172.580568 
L 218.54739 172.580568 
L 219.601325 170.378864 
L 220.655261 170.378864 
L 221.709197 168.177159 
L 222.763133 172.580568 
L 223.817068 174.782273 
L 224.871004 170.378864 
L 225.92494 174.782273 
L 226.978876 176.983977 
L 228.032811 174.782273 
L 229.086747 168.177159 
L 231.194618 168.177159 
L 232.248554 170.378864 
L 233.30249 168.177159 
L 234.356426 176.983977 
L 236.464297 172.580568 
L 237.518233 168.177159 
L 238.572169 165.975455 
L 239.626104 168.177159 
L 240.68004 168.177159 
L 242.787912 163.77375 
L 243.841847 165.975455 
L 244.895783 165.975455 
L 245.949719 163.77375 
L 248.05759 168.177159 
L 250.165462 168.177159 
L 251.219398 172.580568 
L 252.273333 172.580568 
L 253.327269 176.983977 
L 254.381205 179.185682 
L 255.435141 174.782273 
L 256.489076 174.782273 
L 257.543012 172.580568 
L 258.596948 172.580568 
L 259.650884 174.782273 
L 261.758755 174.782273 
L 264.920562 168.177159 
L 267.028434 168.177159 
L 268.082369 172.580568 
L 269.136305 172.580568 
L 270.190241 179.185682 
L 271.244177 176.983977 
L 272.298112 179.185682 
L 273.352048 174.782273 
L 275.45992 174.782273 
L 276.513855 179.185682 
L 277.567791 176.983977 
L 278.621727 172.580568 
L 279.675663 172.580568 
L 280.729598 174.782273 
L 281.783534 170.378864 
L 282.83747 172.580568 
L 283.891406 176.983977 
L 284.945341 174.782273 
L 287.053213 174.782273 
L 288.107149 170.378864 
L 289.161084 163.77375 
L 290.21502 163.77375 
L 291.268956 165.975455 
L 292.322892 163.77375 
L 293.376827 159.370341 
L 295.484699 163.77375 
L 298.646506 163.77375 
L 299.700442 161.572045 
L 300.754378 163.77375 
L 306.024056 163.77375 
L 307.077992 161.572045 
L 308.131928 163.77375 
L 309.185863 163.77375 
L 310.239799 161.572045 
L 311.293735 168.177159 
L 312.347671 165.975455 
L 313.401606 170.378864 
L 314.455542 172.580568 
L 317.617349 172.580568 
L 318.671285 174.782273 
L 319.725221 170.378864 
L 320.779157 170.378864 
L 321.833092 163.77375 
L 322.887028 161.572045 
L 323.940964 165.975455 
L 324.9949 168.177159 
L 326.048835 168.177159 
L 327.102771 165.975455 
L 329.210643 165.975455 
L 331.318514 161.572045 
L 332.37245 163.77375 
L 333.426386 163.77375 
L 334.480321 159.370341 
L 335.534257 161.572045 
L 336.588193 168.177159 
L 337.642129 170.378864 
L 338.696064 170.378864 
L 338.696064 170.378864 
" style="fill:none;stroke:#fc8d62;stroke-linecap:square;stroke-width:2;"/>
   </g>
   <g id="line2d_23">
    <path clip-path="url(#p24bed2897a)" d="M 76.266064 146.160114 
L 78.373936 146.160114 
L 79.427871 148.361818 
L 80.481807 146.160114 
L 81.535743 141.756705 
L 82.589679 139.555 
L 86.805422 139.555 
L 87.859357 132.949886 
L 88.913293 128.546477 
L 89.967229 126.344773 
L 91.021165 128.546477 
L 92.0751 124.143068 
L 94.182972 124.143068 
L 96.290843 128.546477 
L 97.344779 126.344773 
L 98.398715 132.949886 
L 99.452651 132.949886 
L 100.506586 128.546477 
L 101.560522 135.151591 
L 102.614458 137.353295 
L 103.668394 137.353295 
L 104.722329 141.756705 
L 105.776265 143.958409 
L 106.830201 139.555 
L 108.938072 143.958409 
L 109.992008 141.756705 
L 111.045944 148.361818 
L 112.09988 148.361818 
L 113.153815 154.966932 
L 114.207751 154.966932 
L 115.261687 150.563523 
L 116.315622 150.563523 
L 117.369558 146.160114 
L 120.531365 139.555 
L 121.585301 143.958409 
L 122.639237 141.756705 
L 124.747108 146.160114 
L 126.85498 137.353295 
L 127.908916 141.756705 
L 128.962851 132.949886 
L 131.070723 137.353295 
L 132.124659 141.756705 
L 133.178594 139.555 
L 134.23253 132.949886 
L 135.286466 128.546477 
L 136.340402 128.546477 
L 138.448273 119.739659 
L 139.502209 124.143068 
L 140.556145 119.739659 
L 142.664016 124.143068 
L 143.717952 117.537955 
L 144.771888 115.33625 
L 145.825823 108.731136 
L 146.879759 119.739659 
L 147.933695 124.143068 
L 148.987631 124.143068 
L 150.041566 126.344773 
L 151.095502 130.748182 
L 152.149438 124.143068 
L 153.203373 121.941364 
L 154.257309 124.143068 
L 155.311245 119.739659 
L 156.365181 117.537955 
L 157.419116 124.143068 
L 158.473052 126.344773 
L 159.526988 126.344773 
L 160.580924 121.941364 
L 161.634859 128.546477 
L 163.742731 128.546477 
L 164.796667 126.344773 
L 165.850602 132.949886 
L 166.904538 132.949886 
L 167.958474 135.151591 
L 169.01241 139.555 
L 173.228153 139.555 
L 174.282088 132.949886 
L 175.336024 139.555 
L 177.443896 148.361818 
L 178.497831 148.361818 
L 179.551767 154.966932 
L 180.605703 157.168636 
L 183.76751 150.563523 
L 184.821446 150.563523 
L 185.875382 146.160114 
L 186.929317 146.160114 
L 187.983253 143.958409 
L 190.091124 148.361818 
L 191.14506 143.958409 
L 192.198996 148.361818 
L 193.252932 150.563523 
L 194.306867 148.361818 
L 195.360803 152.765227 
L 196.414739 143.958409 
L 201.684418 132.949886 
L 202.738353 135.151591 
L 203.792289 132.949886 
L 204.846225 141.756705 
L 205.900161 143.958409 
L 206.954096 141.756705 
L 208.008032 143.958409 
L 209.061968 143.958409 
L 211.169839 152.765227 
L 212.223775 150.563523 
L 213.277711 152.765227 
L 214.331647 152.765227 
L 215.385582 146.160114 
L 216.439518 146.160114 
L 217.493454 141.756705 
L 218.54739 146.160114 
L 219.601325 148.361818 
L 221.709197 143.958409 
L 222.763133 139.555 
L 224.871004 135.151591 
L 225.92494 128.546477 
L 226.978876 128.546477 
L 228.032811 132.949886 
L 229.086747 139.555 
L 231.194618 143.958409 
L 232.248554 135.151591 
L 233.30249 137.353295 
L 234.356426 126.344773 
L 235.410361 132.949886 
L 236.464297 124.143068 
L 237.518233 124.143068 
L 238.572169 126.344773 
L 239.626104 124.143068 
L 240.68004 126.344773 
L 241.733976 126.344773 
L 242.787912 124.143068 
L 244.895783 124.143068 
L 245.949719 119.739659 
L 248.05759 119.739659 
L 249.111526 121.941364 
L 250.165462 121.941364 
L 251.219398 119.739659 
L 252.273333 121.941364 
L 254.381205 117.537955 
L 255.435141 124.143068 
L 256.489076 121.941364 
L 257.543012 124.143068 
L 258.596948 128.546477 
L 259.650884 130.748182 
L 260.704819 139.555 
L 264.920562 139.555 
L 267.028434 143.958409 
L 268.082369 143.958409 
L 269.136305 141.756705 
L 270.190241 146.160114 
L 271.244177 139.555 
L 272.298112 146.160114 
L 273.352048 146.160114 
L 274.405984 148.361818 
L 276.513855 139.555 
L 277.567791 139.555 
L 278.621727 141.756705 
L 280.729598 137.353295 
L 283.891406 143.958409 
L 284.945341 143.958409 
L 285.999277 137.353295 
L 287.053213 141.756705 
L 288.107149 137.353295 
L 289.161084 143.958409 
L 290.21502 141.756705 
L 291.268956 141.756705 
L 292.322892 143.958409 
L 293.376827 152.765227 
L 294.430763 154.966932 
L 295.484699 154.966932 
L 299.700442 146.160114 
L 300.754378 146.160114 
L 301.808313 143.958409 
L 302.862249 148.361818 
L 303.916185 148.361818 
L 304.97012 139.555 
L 306.024056 137.353295 
L 307.077992 139.555 
L 308.131928 132.949886 
L 309.185863 130.748182 
L 311.293735 130.748182 
L 312.347671 135.151591 
L 313.401606 137.353295 
L 314.455542 137.353295 
L 315.509478 143.958409 
L 316.563414 139.555 
L 317.617349 139.555 
L 318.671285 150.563523 
L 319.725221 150.563523 
L 320.779157 154.966932 
L 321.833092 157.168636 
L 322.887028 154.966932 
L 324.9949 154.966932 
L 326.048835 152.765227 
L 327.102771 148.361818 
L 328.156707 148.361818 
L 329.210643 154.966932 
L 331.318514 154.966932 
L 332.37245 152.765227 
L 333.426386 152.765227 
L 334.480321 154.966932 
L 338.696064 154.966932 
L 338.696064 154.966932 
" style="fill:none;stroke:#8da0cb;stroke-linecap:square;stroke-width:2;"/>
   </g>
   <g id="line2d_24">
    <path clip-path="url(#p24bed2897a)" d="M 76.266064 115.33625 
L 78.373936 115.33625 
L 79.427871 113.134545 
L 80.481807 113.134545 
L 84.69755 104.327727 
L 85.751486 108.731136 
L 88.913293 108.731136 
L 89.967229 110.932841 
L 91.021165 110.932841 
L 92.0751 108.731136 
L 93.129036 108.731136 
L 95.236908 104.327727 
L 96.290843 106.529432 
L 97.344779 104.327727 
L 98.398715 104.327727 
L 99.452651 102.126023 
L 100.506586 104.327727 
L 101.560522 104.327727 
L 102.614458 95.520909 
L 103.668394 93.319205 
L 104.722329 93.319205 
L 106.830201 97.722614 
L 107.884137 97.722614 
L 108.938072 99.924318 
L 111.045944 95.520909 
L 113.153815 86.714091 
L 114.207751 91.1175 
L 115.261687 99.924318 
L 116.315622 102.126023 
L 118.423494 102.126023 
L 119.47743 108.731136 
L 120.531365 110.932841 
L 121.585301 110.932841 
L 122.639237 113.134545 
L 123.693173 110.932841 
L 124.747108 110.932841 
L 125.801044 113.134545 
L 127.908916 113.134545 
L 128.962851 106.529432 
L 130.016787 108.731136 
L 131.070723 113.134545 
L 132.124659 113.134545 
L 133.178594 110.932841 
L 134.23253 119.739659 
L 135.286466 124.143068 
L 136.340402 119.739659 
L 139.502209 119.739659 
L 140.556145 121.941364 
L 141.61008 115.33625 
L 142.664016 119.739659 
L 144.771888 124.143068 
L 146.879759 132.949886 
L 147.933695 130.748182 
L 148.987631 130.748182 
L 150.041566 124.143068 
L 151.095502 124.143068 
L 152.149438 121.941364 
L 153.203373 121.941364 
L 154.257309 119.739659 
L 155.311245 119.739659 
L 157.419116 115.33625 
L 158.473052 108.731136 
L 160.580924 104.327727 
L 162.688795 104.327727 
L 163.742731 99.924318 
L 164.796667 99.924318 
L 166.904538 91.1175 
L 169.01241 86.714091 
L 171.120281 91.1175 
L 173.228153 91.1175 
L 174.282088 95.520909 
L 176.38996 91.1175 
L 177.443896 84.512386 
L 178.497831 86.714091 
L 180.605703 82.310682 
L 181.659639 77.907273 
L 182.713574 80.108977 
L 183.76751 77.907273 
L 186.929317 77.907273 
L 187.983253 75.705568 
L 189.037189 69.100455 
L 190.091124 66.89875 
L 191.14506 69.100455 
L 192.198996 64.697045 
L 193.252932 62.495341 
L 194.306867 64.697045 
L 195.360803 60.293636 
L 196.414739 62.495341 
L 197.468675 66.89875 
L 198.52261 66.89875 
L 199.576546 64.697045 
L 200.630482 69.100455 
L 201.684418 69.100455 
L 202.738353 64.697045 
L 203.792289 69.100455 
L 204.846225 64.697045 
L 206.954096 69.100455 
L 208.008032 69.100455 
L 209.061968 71.302159 
L 210.115904 69.100455 
L 211.169839 69.100455 
L 212.223775 75.705568 
L 213.277711 73.503864 
L 214.331647 69.100455 
L 216.439518 69.100455 
L 217.493454 73.503864 
L 218.54739 66.89875 
L 219.601325 66.89875 
L 220.655261 60.293636 
L 221.709197 64.697045 
L 222.763133 62.495341 
L 223.817068 58.091932 
L 224.871004 58.091932 
L 226.978876 53.688523 
L 229.086747 53.688523 
L 230.140683 51.486818 
L 231.194618 58.091932 
L 232.248554 66.89875 
L 233.30249 69.100455 
L 234.356426 73.503864 
L 235.410361 66.89875 
L 236.464297 69.100455 
L 237.518233 73.503864 
L 238.572169 75.705568 
L 239.626104 80.108977 
L 242.787912 86.714091 
L 244.895783 86.714091 
L 245.949719 91.1175 
L 247.003655 86.714091 
L 248.05759 86.714091 
L 250.165462 91.1175 
L 251.219398 86.714091 
L 253.327269 86.714091 
L 254.381205 84.512386 
L 256.489076 88.915795 
L 258.596948 88.915795 
L 259.650884 86.714091 
L 260.704819 82.310682 
L 261.758755 82.310682 
L 263.866627 86.714091 
L 264.920562 86.714091 
L 265.974498 88.915795 
L 267.028434 86.714091 
L 268.082369 77.907273 
L 269.136305 73.503864 
L 270.190241 64.697045 
L 271.244177 73.503864 
L 272.298112 64.697045 
L 273.352048 69.100455 
L 274.405984 66.89875 
L 275.45992 71.302159 
L 276.513855 71.302159 
L 277.567791 73.503864 
L 280.729598 73.503864 
L 281.783534 75.705568 
L 282.83747 69.100455 
L 284.945341 60.293636 
L 285.999277 62.495341 
L 287.053213 60.293636 
L 288.107149 64.697045 
L 290.21502 69.100455 
L 293.376827 69.100455 
L 294.430763 64.697045 
L 295.484699 62.495341 
L 297.59257 66.89875 
L 298.646506 73.503864 
L 299.700442 77.907273 
L 300.754378 73.503864 
L 301.808313 73.503864 
L 302.862249 75.705568 
L 303.916185 75.705568 
L 304.97012 80.108977 
L 306.024056 82.310682 
L 307.077992 82.310682 
L 308.131928 84.512386 
L 311.293735 84.512386 
L 312.347671 82.310682 
L 313.401606 75.705568 
L 314.455542 75.705568 
L 315.509478 64.697045 
L 316.563414 69.100455 
L 317.617349 69.100455 
L 318.671285 64.697045 
L 319.725221 66.89875 
L 320.779157 60.293636 
L 321.833092 62.495341 
L 322.887028 69.100455 
L 323.940964 64.697045 
L 326.048835 64.697045 
L 327.102771 66.89875 
L 328.156707 66.89875 
L 329.210643 60.293636 
L 332.37245 66.89875 
L 333.426386 64.697045 
L 334.480321 69.100455 
L 336.588193 64.697045 
L 338.696064 64.697045 
L 338.696064 64.697045 
" style="fill:none;stroke:#e78ac3;stroke-linecap:square;stroke-width:2;"/>
   </g>
   <g id="patch_4">
    <path d="M 77.32 205.43 
L 77.32 42.68 
" style="fill:none;stroke:#000000;stroke-linecap:square;stroke-linejoin:miter;stroke-width:0.8;"/>
   </g>
   <g id="patch_5">
    <path d="M 77.32 205.43 
L 339.75 205.43 
" style="fill:none;stroke:#000000;stroke-linecap:square;stroke-linejoin:miter;stroke-width:0.8;"/>
   </g>
   <g id="text_7">
    <!-- EG -->
    <defs>
     <path d="M 9.1875 72.90625 
L 59.90625 72.90625 
L 59.90625 58.6875 
L 27.984375 58.6875 
L 27.984375 45.125 
L 58.015625 45.125 
L 58.015625 30.90625 
L 27.984375 30.90625 
L 27.984375 14.203125 
L 60.984375 14.203125 
L 60.984375 0 
L 9.1875 0 
z
" id="DejaVuSans-Bold-69"/>
     <path d="M 74.703125 5.421875 
Q 67.671875 2 60.109375 0.28125 
Q 52.546875 -1.421875 44.484375 -1.421875 
Q 26.265625 -1.421875 15.625 8.765625 
Q 4.984375 18.953125 4.984375 36.375 
Q 4.984375 54 15.8125 64.109375 
Q 26.65625 74.21875 45.515625 74.21875 
Q 52.78125 74.21875 59.4375 72.84375 
Q 66.109375 71.484375 72.015625 68.796875 
L 72.015625 53.71875 
Q 65.921875 57.171875 59.890625 58.875 
Q 53.859375 60.59375 47.796875 60.59375 
Q 36.578125 60.59375 30.5 54.3125 
Q 24.421875 48.046875 24.421875 36.375 
Q 24.421875 24.8125 30.28125 18.5 
Q 36.140625 12.203125 46.921875 12.203125 
Q 49.859375 12.203125 52.375 12.5625 
Q 54.890625 12.9375 56.890625 13.71875 
L 56.890625 27.875 
L 45.40625 27.875 
L 45.40625 40.484375 
L 74.703125 40.484375 
z
" id="DejaVuSans-Bold-71"/>
    </defs>
    <g style="fill:#fc4f30;" transform="translate(90.4415 61.455312)scale(0.14 -0.14)">
     <use xlink:href="#DejaVuSans-Bold-69"/>
     <use x="68.310547" xlink:href="#DejaVuSans-Bold-71"/>
    </g>
   </g>
   <g id="legend_1">
    <g id="patch_6">
     <path d="M 87.12 35.68 
L 329.95 35.68 
Q 332.75 35.68 332.75 32.88 
L 332.75 13.730625 
Q 332.75 10.930625 329.95 10.930625 
L 87.12 10.930625 
Q 84.32 10.930625 84.32 13.730625 
L 84.32 32.88 
Q 84.32 35.68 87.12 35.68 
z
" style="fill:#ffffff;opacity:0.8;stroke:#cccccc;stroke-linejoin:miter;"/>
    </g>
    <g id="line2d_25"/>
    <g id="line2d_26">
     <defs>
      <path d="M 0 3 
C 0.795609 3 1.55874 2.683901 2.12132 2.12132 
C 2.683901 1.55874 3 0.795609 3 0 
C 3 -0.795609 2.683901 -1.55874 2.12132 -2.12132 
C 1.55874 -2.683901 0.795609 -3 0 -3 
C -0.795609 -3 -1.55874 -2.683901 -2.12132 -2.12132 
C -2.683901 -1.55874 -3 -0.795609 -3 0 
C -3 0.795609 -2.683901 1.55874 -2.12132 2.12132 
C -1.55874 2.683901 -0.795609 3 0 3 
z
" id="m4e510bca88" style="stroke:#65c2a5;"/>
     </defs>
     <g>
      <use style="fill:#65c2a5;stroke:#65c2a5;" x="103.92" xlink:href="#m4e510bca88" y="22.268437"/>
     </g>
    </g>
    <g id="text_8">
     <!-- A1 -->
     <defs>
      <path d="M 53.421875 13.28125 
L 24.03125 13.28125 
L 19.390625 0 
L 0.484375 0 
L 27.484375 72.90625 
L 49.90625 72.90625 
L 76.90625 0 
L 58.015625 0 
z
M 28.71875 26.8125 
L 48.6875 26.8125 
L 38.71875 55.8125 
z
" id="DejaVuSans-Bold-65"/>
      <path d="M 11.71875 12.984375 
L 28.328125 12.984375 
L 28.328125 60.109375 
L 11.28125 56.59375 
L 11.28125 69.390625 
L 28.21875 72.90625 
L 46.09375 72.90625 
L 46.09375 12.984375 
L 62.703125 12.984375 
L 62.703125 0 
L 11.71875 0 
z
" id="DejaVuSans-Bold-49"/>
     </defs>
     <g style="fill:#65c2a5;" transform="translate(118.62 27.168437)scale(0.14 -0.14)">
      <use xlink:href="#DejaVuSans-Bold-65"/>
      <use x="77.392578" xlink:href="#DejaVuSans-Bold-49"/>
     </g>
    </g>
    <g id="line2d_27"/>
    <g id="line2d_28">
     <defs>
      <path d="M 0 3 
C 0.795609 3 1.55874 2.683901 2.12132 2.12132 
C 2.683901 1.55874 3 0.795609 3 0 
C 3 -0.795609 2.683901 -1.55874 2.12132 -2.12132 
C 1.55874 -2.683901 0.795609 -3 0 -3 
C -0.795609 -3 -1.55874 -2.683901 -2.12132 -2.12132 
C -2.683901 -1.55874 -3 -0.795609 -3 0 
C -3 0.795609 -2.683901 1.55874 -2.12132 2.12132 
C -1.55874 2.683901 -0.795609 3 0 3 
z
" id="mf58b009b88" style="stroke:#fc8d62;"/>
     </defs>
     <g>
      <use style="fill:#fc8d62;stroke:#fc8d62;" x="166.571458" xlink:href="#mf58b009b88" y="22.268437"/>
     </g>
    </g>
    <g id="text_9">
     <!-- A2 -->
     <defs>
      <path d="M 28.8125 13.8125 
L 60.890625 13.8125 
L 60.890625 0 
L 7.90625 0 
L 7.90625 13.8125 
L 34.515625 37.3125 
Q 38.09375 40.53125 39.796875 43.609375 
Q 41.5 46.6875 41.5 50 
Q 41.5 55.125 38.0625 58.25 
Q 34.625 61.375 28.90625 61.375 
Q 24.515625 61.375 19.28125 59.5 
Q 14.0625 57.625 8.109375 53.90625 
L 8.109375 69.921875 
Q 14.453125 72.015625 20.65625 73.109375 
Q 26.859375 74.21875 32.8125 74.21875 
Q 45.90625 74.21875 53.15625 68.453125 
Q 60.40625 62.703125 60.40625 52.390625 
Q 60.40625 46.4375 57.328125 41.28125 
Q 54.25 36.140625 44.390625 27.484375 
z
" id="DejaVuSans-Bold-50"/>
     </defs>
     <g style="fill:#fc8d62;" transform="translate(181.271458 27.168437)scale(0.14 -0.14)">
      <use xlink:href="#DejaVuSans-Bold-65"/>
      <use x="77.392578" xlink:href="#DejaVuSans-Bold-50"/>
     </g>
    </g>
    <g id="line2d_29"/>
    <g id="line2d_30">
     <defs>
      <path d="M 0 3 
C 0.795609 3 1.55874 2.683901 2.12132 2.12132 
C 2.683901 1.55874 3 0.795609 3 0 
C 3 -0.795609 2.683901 -1.55874 2.12132 -2.12132 
C 1.55874 -2.683901 0.795609 -3 0 -3 
C -0.795609 -3 -1.55874 -2.683901 -2.12132 -2.12132 
C -2.683901 -1.55874 -3 -0.795609 -3 0 
C -3 0.795609 -2.683901 1.55874 -2.12132 2.12132 
C -1.55874 2.683901 -0.795609 3 0 3 
z
" id="me993a93ab9" style="stroke:#8da0cb;"/>
     </defs>
     <g>
      <use style="fill:#8da0cb;stroke:#8da0cb;" x="229.222917" xlink:href="#me993a93ab9" y="22.268437"/>
     </g>
    </g>
    <g id="text_10">
     <!-- A3 -->
     <defs>
      <path d="M 46.578125 39.3125 
Q 53.953125 37.40625 57.78125 32.6875 
Q 61.625 27.984375 61.625 20.703125 
Q 61.625 9.859375 53.3125 4.21875 
Q 45.015625 -1.421875 29.109375 -1.421875 
Q 23.484375 -1.421875 17.84375 -0.515625 
Q 12.203125 0.390625 6.6875 2.203125 
L 6.6875 16.703125 
Q 11.96875 14.0625 17.15625 12.71875 
Q 22.359375 11.375 27.390625 11.375 
Q 34.859375 11.375 38.84375 13.953125 
Q 42.828125 16.546875 42.828125 21.390625 
Q 42.828125 26.375 38.75 28.9375 
Q 34.671875 31.5 26.703125 31.5 
L 19.1875 31.5 
L 19.1875 43.609375 
L 27.09375 43.609375 
Q 34.1875 43.609375 37.640625 45.828125 
Q 41.109375 48.046875 41.109375 52.59375 
Q 41.109375 56.78125 37.734375 59.078125 
Q 34.375 61.375 28.21875 61.375 
Q 23.6875 61.375 19.046875 60.34375 
Q 14.40625 59.328125 9.8125 57.328125 
L 9.8125 71.09375 
Q 15.375 72.65625 20.84375 73.4375 
Q 26.3125 74.21875 31.59375 74.21875 
Q 45.796875 74.21875 52.84375 69.546875 
Q 59.90625 64.890625 59.90625 55.515625 
Q 59.90625 49.125 56.53125 45.046875 
Q 53.171875 40.96875 46.578125 39.3125 
z
" id="DejaVuSans-Bold-51"/>
     </defs>
     <g style="fill:#8da0cb;" transform="translate(243.922917 27.168437)scale(0.14 -0.14)">
      <use xlink:href="#DejaVuSans-Bold-65"/>
      <use x="77.392578" xlink:href="#DejaVuSans-Bold-51"/>
     </g>
    </g>
    <g id="line2d_31"/>
    <g id="line2d_32">
     <defs>
      <path d="M 0 3 
C 0.795609 3 1.55874 2.683901 2.12132 2.12132 
C 2.683901 1.55874 3 0.795609 3 0 
C 3 -0.795609 2.683901 -1.55874 2.12132 -2.12132 
C 1.55874 -2.683901 0.795609 -3 0 -3 
C -0.795609 -3 -1.55874 -2.683901 -2.12132 -2.12132 
C -2.683901 -1.55874 -3 -0.795609 -3 0 
C -3 0.795609 -2.683901 1.55874 -2.12132 2.12132 
C -1.55874 2.683901 -0.795609 3 0 3 
z
" id="m20023a9b57" style="stroke:#e78ac3;"/>
     </defs>
     <g>
      <use style="fill:#e78ac3;stroke:#e78ac3;" x="291.874375" xlink:href="#m20023a9b57" y="22.268437"/>
     </g>
    </g>
    <g id="text_11">
     <!-- A4 -->
     <defs>
      <path d="M 36.8125 57.421875 
L 16.21875 26.90625 
L 36.8125 26.90625 
z
M 33.6875 72.90625 
L 54.59375 72.90625 
L 54.59375 26.90625 
L 64.984375 26.90625 
L 64.984375 13.28125 
L 54.59375 13.28125 
L 54.59375 0 
L 36.8125 0 
L 36.8125 13.28125 
L 4.5 13.28125 
L 4.5 29.390625 
z
" id="DejaVuSans-Bold-52"/>
     </defs>
     <g style="fill:#e78ac3;" transform="translate(306.574375 27.168437)scale(0.14 -0.14)">
      <use xlink:href="#DejaVuSans-Bold-65"/>
      <use x="77.392578" xlink:href="#DejaVuSans-Bold-52"/>
     </g>
    </g>
   </g>
  </g>
  <g id="axes_3">
   <g id="patch_7">
    <path d="M 77.32 386.44 
L 339.75 386.44 
L 339.75 223.69 
L 77.32 223.69 
z
" style="fill:#ffffff;"/>
   </g>
   <g id="matplotlib.axis_5">
    <g id="xtick_12">
     <g id="line2d_33">
      <path clip-path="url(#p13c52334a1)" d="M 128.962851 386.44 
L 128.962851 223.69 
" style="fill:none;stroke:#808080;stroke-dasharray:0.8,1.32;stroke-dashoffset:0;stroke-width:0.8;"/>
     </g>
     <g id="line2d_34">
      <g>
       <use style="stroke:#000000;stroke-width:0.8;" x="128.962851" xlink:href="#me78f822df5" y="386.44"/>
      </g>
     </g>
     <g id="text_12">
      <!-- 50 -->
      <g transform="translate(122.600351 401.038437)scale(0.1 -0.1)">
       <use xlink:href="#DejaVuSans-53"/>
       <use x="63.623047" xlink:href="#DejaVuSans-48"/>
      </g>
     </g>
    </g>
    <g id="xtick_13">
     <g id="line2d_35">
      <path clip-path="url(#p13c52334a1)" d="M 181.659639 386.44 
L 181.659639 223.69 
" style="fill:none;stroke:#808080;stroke-dasharray:0.8,1.32;stroke-dashoffset:0;stroke-width:0.8;"/>
     </g>
     <g id="line2d_36">
      <g>
       <use style="stroke:#000000;stroke-width:0.8;" x="181.659639" xlink:href="#me78f822df5" y="386.44"/>
      </g>
     </g>
     <g id="text_13">
      <!-- 100 -->
      <g transform="translate(172.115889 401.038437)scale(0.1 -0.1)">
       <use xlink:href="#DejaVuSans-49"/>
       <use x="63.623047" xlink:href="#DejaVuSans-48"/>
       <use x="127.246094" xlink:href="#DejaVuSans-48"/>
      </g>
     </g>
    </g>
    <g id="xtick_14">
     <g id="line2d_37">
      <path clip-path="url(#p13c52334a1)" d="M 234.356426 386.44 
L 234.356426 223.69 
" style="fill:none;stroke:#808080;stroke-dasharray:0.8,1.32;stroke-dashoffset:0;stroke-width:0.8;"/>
     </g>
     <g id="line2d_38">
      <g>
       <use style="stroke:#000000;stroke-width:0.8;" x="234.356426" xlink:href="#me78f822df5" y="386.44"/>
      </g>
     </g>
     <g id="text_14">
      <!-- 150 -->
      <g transform="translate(224.812676 401.038437)scale(0.1 -0.1)">
       <use xlink:href="#DejaVuSans-49"/>
       <use x="63.623047" xlink:href="#DejaVuSans-53"/>
       <use x="127.246094" xlink:href="#DejaVuSans-48"/>
      </g>
     </g>
    </g>
    <g id="xtick_15">
     <g id="line2d_39">
      <path clip-path="url(#p13c52334a1)" d="M 287.053213 386.44 
L 287.053213 223.69 
" style="fill:none;stroke:#808080;stroke-dasharray:0.8,1.32;stroke-dashoffset:0;stroke-width:0.8;"/>
     </g>
     <g id="line2d_40">
      <g>
       <use style="stroke:#000000;stroke-width:0.8;" x="287.053213" xlink:href="#me78f822df5" y="386.44"/>
      </g>
     </g>
     <g id="text_15">
      <!-- 200 -->
      <g transform="translate(277.509463 401.038437)scale(0.1 -0.1)">
       <use xlink:href="#DejaVuSans-50"/>
       <use x="63.623047" xlink:href="#DejaVuSans-48"/>
       <use x="127.246094" xlink:href="#DejaVuSans-48"/>
      </g>
     </g>
    </g>
    <g id="xtick_16">
     <g id="line2d_41">
      <path clip-path="url(#p13c52334a1)" d="M 339.75 386.44 
L 339.75 223.69 
" style="fill:none;stroke:#808080;stroke-dasharray:0.8,1.32;stroke-dashoffset:0;stroke-width:0.8;"/>
     </g>
     <g id="line2d_42">
      <g>
       <use style="stroke:#000000;stroke-width:0.8;" x="339.75" xlink:href="#me78f822df5" y="386.44"/>
      </g>
     </g>
     <g id="text_16">
      <!-- 250 -->
      <g transform="translate(330.20625 401.038437)scale(0.1 -0.1)">
       <use xlink:href="#DejaVuSans-50"/>
       <use x="63.623047" xlink:href="#DejaVuSans-53"/>
       <use x="127.246094" xlink:href="#DejaVuSans-48"/>
      </g>
     </g>
    </g>
    <g id="text_17">
     <!-- Trial -->
     <defs>
      <path d="M -0.296875 72.90625 
L 61.375 72.90625 
L 61.375 64.59375 
L 35.5 64.59375 
L 35.5 0 
L 25.59375 0 
L 25.59375 64.59375 
L -0.296875 64.59375 
z
" id="DejaVuSans-84"/>
     </defs>
     <g transform="translate(194.235313 417.755937)scale(0.14 -0.14)">
      <use xlink:href="#DejaVuSans-84"/>
      <use x="46.333984" xlink:href="#DejaVuSans-114"/>
      <use x="87.447266" xlink:href="#DejaVuSans-105"/>
      <use x="115.230469" xlink:href="#DejaVuSans-97"/>
      <use x="176.509766" xlink:href="#DejaVuSans-108"/>
     </g>
    </g>
   </g>
   <g id="matplotlib.axis_6">
    <g id="ytick_12">
     <g id="line2d_43">
      <path clip-path="url(#p13c52334a1)" d="M 77.32 378.69 
L 339.75 378.69 
" style="fill:none;stroke:#808080;stroke-dasharray:0.8,1.32;stroke-dashoffset:0;stroke-width:0.8;"/>
     </g>
     <g id="line2d_44">
      <g>
       <use style="stroke:#000000;stroke-width:0.8;" x="77.32" xlink:href="#m9ceab48a68" y="378.69"/>
      </g>
     </g>
     <g id="text_18">
      <!-- 0.1 -->
      <g transform="translate(54.416875 382.489219)scale(0.1 -0.1)">
       <use xlink:href="#DejaVuSans-48"/>
       <use x="63.623047" xlink:href="#DejaVuSans-46"/>
       <use x="95.410156" xlink:href="#DejaVuSans-49"/>
      </g>
     </g>
    </g>
    <g id="ytick_13">
     <g id="line2d_45">
      <path clip-path="url(#p13c52334a1)" d="M 77.32 339.94 
L 339.75 339.94 
" style="fill:none;stroke:#808080;stroke-dasharray:0.8,1.32;stroke-dashoffset:0;stroke-width:0.8;"/>
     </g>
     <g id="line2d_46">
      <g>
       <use style="stroke:#000000;stroke-width:0.8;" x="77.32" xlink:href="#m9ceab48a68" y="339.94"/>
      </g>
     </g>
     <g id="text_19">
      <!-- 0.2 -->
      <g transform="translate(54.416875 343.739219)scale(0.1 -0.1)">
       <use xlink:href="#DejaVuSans-48"/>
       <use x="63.623047" xlink:href="#DejaVuSans-46"/>
       <use x="95.410156" xlink:href="#DejaVuSans-50"/>
      </g>
     </g>
    </g>
    <g id="ytick_14">
     <g id="line2d_47">
      <path clip-path="url(#p13c52334a1)" d="M 77.32 301.19 
L 339.75 301.19 
" style="fill:none;stroke:#808080;stroke-dasharray:0.8,1.32;stroke-dashoffset:0;stroke-width:0.8;"/>
     </g>
     <g id="line2d_48">
      <g>
       <use style="stroke:#000000;stroke-width:0.8;" x="77.32" xlink:href="#m9ceab48a68" y="301.19"/>
      </g>
     </g>
     <g id="text_20">
      <!-- 0.3 -->
      <g transform="translate(54.416875 304.989219)scale(0.1 -0.1)">
       <use xlink:href="#DejaVuSans-48"/>
       <use x="63.623047" xlink:href="#DejaVuSans-46"/>
       <use x="95.410156" xlink:href="#DejaVuSans-51"/>
      </g>
     </g>
    </g>
    <g id="ytick_15">
     <g id="line2d_49">
      <path clip-path="url(#p13c52334a1)" d="M 77.32 262.44 
L 339.75 262.44 
" style="fill:none;stroke:#808080;stroke-dasharray:0.8,1.32;stroke-dashoffset:0;stroke-width:0.8;"/>
     </g>
     <g id="line2d_50">
      <g>
       <use style="stroke:#000000;stroke-width:0.8;" x="77.32" xlink:href="#m9ceab48a68" y="262.44"/>
      </g>
     </g>
     <g id="text_21">
      <!-- 0.4 -->
      <g transform="translate(54.416875 266.239219)scale(0.1 -0.1)">
       <use xlink:href="#DejaVuSans-48"/>
       <use x="63.623047" xlink:href="#DejaVuSans-46"/>
       <use x="95.410156" xlink:href="#DejaVuSans-52"/>
      </g>
     </g>
    </g>
    <g id="ytick_16">
     <g id="line2d_51">
      <path clip-path="url(#p13c52334a1)" d="M 77.32 223.69 
L 339.75 223.69 
" style="fill:none;stroke:#808080;stroke-dasharray:0.8,1.32;stroke-dashoffset:0;stroke-width:0.8;"/>
     </g>
     <g id="line2d_52">
      <g>
       <use style="stroke:#000000;stroke-width:0.8;" x="77.32" xlink:href="#m9ceab48a68" y="223.69"/>
      </g>
     </g>
     <g id="text_22">
      <!-- 0.5 -->
      <g transform="translate(54.416875 227.489219)scale(0.1 -0.1)">
       <use xlink:href="#DejaVuSans-48"/>
       <use x="63.623047" xlink:href="#DejaVuSans-46"/>
       <use x="95.410156" xlink:href="#DejaVuSans-53"/>
      </g>
     </g>
    </g>
   </g>
   <g id="line2d_53">
    <path clip-path="url(#p13c52334a1)" d="M 76.266064 284.07961 
L 77.32 281.563377 
L 83.643614 281.563377 
L 84.69755 279.047143 
L 85.751486 271.498442 
L 86.805422 271.498442 
L 87.859357 266.465974 
L 88.913293 266.465974 
L 89.967229 279.047143 
L 91.021165 289.112078 
L 92.0751 289.112078 
L 93.129036 294.144545 
L 94.182972 301.693247 
L 95.236908 299.177013 
L 96.290843 299.177013 
L 98.398715 314.274416 
L 101.560522 306.725714 
L 102.614458 314.274416 
L 103.668394 316.790649 
L 104.722329 311.758182 
L 106.830201 311.758182 
L 107.884137 316.790649 
L 109.992008 311.758182 
L 111.045944 306.725714 
L 112.09988 311.758182 
L 114.207751 311.758182 
L 115.261687 306.725714 
L 117.369558 301.693247 
L 120.531365 301.693247 
L 121.585301 306.725714 
L 124.747108 306.725714 
L 125.801044 309.241948 
L 126.85498 309.241948 
L 127.908916 306.725714 
L 130.016787 321.823117 
L 131.070723 331.888052 
L 132.124659 331.888052 
L 133.178594 334.404286 
L 134.23253 329.371818 
L 135.286466 334.404286 
L 137.394337 334.404286 
L 138.448273 331.888052 
L 141.61008 331.888052 
L 142.664016 339.436753 
L 145.825823 339.436753 
L 146.879759 341.952987 
L 147.933695 341.952987 
L 148.987631 344.469221 
L 151.095502 334.404286 
L 154.257309 334.404286 
L 155.311245 326.855584 
L 156.365181 326.855584 
L 157.419116 329.371818 
L 158.473052 334.404286 
L 159.526988 344.469221 
L 160.580924 339.436753 
L 161.634859 341.952987 
L 163.742731 341.952987 
L 164.796667 344.469221 
L 165.850602 344.469221 
L 166.904538 341.952987 
L 167.958474 334.404286 
L 169.01241 331.888052 
L 170.066345 321.823117 
L 171.120281 316.790649 
L 173.228153 316.790649 
L 174.282088 306.725714 
L 175.336024 306.725714 
L 176.38996 299.177013 
L 177.443896 294.144545 
L 178.497831 294.144545 
L 179.551767 299.177013 
L 180.605703 299.177013 
L 181.659639 296.660779 
L 182.713574 304.209481 
L 183.76751 299.177013 
L 184.821446 304.209481 
L 185.875382 306.725714 
L 186.929317 301.693247 
L 187.983253 301.693247 
L 189.037189 304.209481 
L 190.091124 304.209481 
L 191.14506 301.693247 
L 195.360803 311.758182 
L 196.414739 316.790649 
L 197.468675 319.306883 
L 198.52261 316.790649 
L 199.576546 319.306883 
L 200.630482 311.758182 
L 202.738353 311.758182 
L 203.792289 304.209481 
L 204.846225 299.177013 
L 205.900161 304.209481 
L 206.954096 296.660779 
L 208.008032 299.177013 
L 209.061968 296.660779 
L 211.169839 306.725714 
L 214.331647 299.177013 
L 215.385582 291.628312 
L 216.439518 294.144545 
L 217.493454 294.144545 
L 218.54739 291.628312 
L 219.601325 291.628312 
L 220.655261 289.112078 
L 221.709197 291.628312 
L 222.763133 289.112078 
L 223.817068 289.112078 
L 225.92494 299.177013 
L 226.978876 301.693247 
L 228.032811 296.660779 
L 230.140683 301.693247 
L 231.194618 306.725714 
L 232.248554 306.725714 
L 233.30249 309.241948 
L 234.356426 314.274416 
L 236.464297 319.306883 
L 238.572169 319.306883 
L 239.626104 324.339351 
L 241.733976 324.339351 
L 243.841847 314.274416 
L 244.895783 311.758182 
L 245.949719 316.790649 
L 247.003655 314.274416 
L 248.05759 314.274416 
L 249.111526 311.758182 
L 251.219398 321.823117 
L 252.273333 319.306883 
L 253.327269 321.823117 
L 254.381205 321.823117 
L 255.435141 319.306883 
L 256.489076 326.855584 
L 257.543012 329.371818 
L 258.596948 329.371818 
L 259.650884 326.855584 
L 260.704819 326.855584 
L 261.758755 321.823117 
L 262.812691 321.823117 
L 263.866627 319.306883 
L 265.974498 319.306883 
L 267.028434 321.823117 
L 268.082369 311.758182 
L 269.136305 309.241948 
L 270.190241 309.241948 
L 271.244177 306.725714 
L 275.45992 306.725714 
L 276.513855 309.241948 
L 277.567791 316.790649 
L 278.621727 314.274416 
L 279.675663 309.241948 
L 280.729598 309.241948 
L 281.783534 304.209481 
L 282.83747 304.209481 
L 283.891406 301.693247 
L 284.945341 296.660779 
L 285.999277 296.660779 
L 287.053213 294.144545 
L 288.107149 299.177013 
L 289.161084 299.177013 
L 291.268956 304.209481 
L 293.376827 294.144545 
L 294.430763 294.144545 
L 295.484699 296.660779 
L 296.538635 294.144545 
L 297.59257 286.595844 
L 300.754378 286.595844 
L 301.808313 281.563377 
L 304.97012 281.563377 
L 306.024056 286.595844 
L 307.077992 284.07961 
L 308.131928 279.047143 
L 310.239799 279.047143 
L 311.293735 281.563377 
L 312.347671 279.047143 
L 314.455542 279.047143 
L 315.509478 284.07961 
L 316.563414 284.07961 
L 317.617349 286.595844 
L 319.725221 281.563377 
L 320.779157 286.595844 
L 321.833092 284.07961 
L 322.887028 279.047143 
L 323.940964 279.047143 
L 324.9949 274.014675 
L 326.048835 274.014675 
L 327.102771 271.498442 
L 328.156707 271.498442 
L 329.210643 274.014675 
L 331.318514 274.014675 
L 332.37245 279.047143 
L 333.426386 279.047143 
L 334.480321 276.530909 
L 338.696064 276.530909 
L 338.696064 276.530909 
" style="fill:none;stroke:#65c2a5;stroke-linecap:square;stroke-width:2;"/>
   </g>
   <g id="line2d_54">
    <path clip-path="url(#p13c52334a1)" d="M 76.266064 324.339351 
L 78.373936 324.339351 
L 79.427871 321.823117 
L 81.535743 321.823117 
L 82.589679 316.790649 
L 87.859357 329.371818 
L 89.967229 324.339351 
L 91.021165 324.339351 
L 92.0751 326.855584 
L 93.129036 334.404286 
L 94.182972 339.436753 
L 95.236908 336.920519 
L 96.290843 344.469221 
L 97.344779 341.952987 
L 98.398715 341.952987 
L 99.452651 346.985455 
L 101.560522 346.985455 
L 103.668394 341.952987 
L 104.722329 344.469221 
L 105.776265 349.501688 
L 106.830201 344.469221 
L 107.884137 341.952987 
L 111.045944 341.952987 
L 112.09988 334.404286 
L 113.153815 334.404286 
L 114.207751 331.888052 
L 115.261687 331.888052 
L 116.315622 339.436753 
L 118.423494 339.436753 
L 119.47743 341.952987 
L 121.585301 326.855584 
L 122.639237 329.371818 
L 123.693173 329.371818 
L 124.747108 319.306883 
L 127.908916 319.306883 
L 128.962851 321.823117 
L 130.016787 319.306883 
L 131.070723 309.241948 
L 132.124659 309.241948 
L 133.178594 311.758182 
L 135.286466 311.758182 
L 137.394337 306.725714 
L 138.448273 309.241948 
L 140.556145 309.241948 
L 141.61008 311.758182 
L 144.771888 304.209481 
L 145.825823 309.241948 
L 147.933695 304.209481 
L 150.041566 304.209481 
L 151.095502 309.241948 
L 153.203373 304.209481 
L 154.257309 306.725714 
L 155.311245 314.274416 
L 156.365181 314.274416 
L 158.473052 309.241948 
L 159.526988 299.177013 
L 160.580924 304.209481 
L 161.634859 301.693247 
L 162.688795 301.693247 
L 163.742731 306.725714 
L 164.796667 301.693247 
L 165.850602 301.693247 
L 166.904538 309.241948 
L 169.01241 309.241948 
L 170.066345 314.274416 
L 171.120281 314.274416 
L 172.174217 321.823117 
L 173.228153 321.823117 
L 174.282088 329.371818 
L 175.336024 324.339351 
L 176.38996 324.339351 
L 177.443896 331.888052 
L 178.497831 334.404286 
L 179.551767 331.888052 
L 181.659639 331.888052 
L 182.713574 329.371818 
L 183.76751 331.888052 
L 184.821446 329.371818 
L 185.875382 324.339351 
L 186.929317 326.855584 
L 187.983253 326.855584 
L 189.037189 321.823117 
L 190.091124 321.823117 
L 191.14506 316.790649 
L 192.198996 319.306883 
L 194.306867 319.306883 
L 197.468675 311.758182 
L 199.576546 316.790649 
L 200.630482 314.274416 
L 201.684418 314.274416 
L 202.738353 316.790649 
L 203.792289 316.790649 
L 204.846225 324.339351 
L 206.954096 324.339351 
L 209.061968 319.306883 
L 210.115904 311.758182 
L 211.169839 311.758182 
L 215.385582 331.888052 
L 219.601325 331.888052 
L 222.763133 339.436753 
L 223.817068 336.920519 
L 225.92494 336.920519 
L 230.140683 326.855584 
L 231.194618 321.823117 
L 232.248554 319.306883 
L 233.30249 324.339351 
L 235.410361 319.306883 
L 240.68004 319.306883 
L 241.733976 324.339351 
L 242.787912 334.404286 
L 243.841847 334.404286 
L 244.895783 336.920519 
L 245.949719 336.920519 
L 247.003655 341.952987 
L 249.111526 341.952987 
L 250.165462 336.920519 
L 251.219398 334.404286 
L 252.273333 329.371818 
L 253.327269 334.404286 
L 254.381205 329.371818 
L 257.543012 321.823117 
L 258.596948 324.339351 
L 259.650884 324.339351 
L 260.704819 326.855584 
L 262.812691 326.855584 
L 263.866627 329.371818 
L 265.974498 329.371818 
L 268.082369 324.339351 
L 269.136305 319.306883 
L 271.244177 319.306883 
L 272.298112 321.823117 
L 273.352048 329.371818 
L 274.405984 329.371818 
L 275.45992 331.888052 
L 276.513855 329.371818 
L 277.567791 324.339351 
L 279.675663 334.404286 
L 280.729598 334.404286 
L 281.783534 336.920519 
L 282.83747 334.404286 
L 283.891406 334.404286 
L 284.945341 329.371818 
L 285.999277 331.888052 
L 287.053213 329.371818 
L 288.107149 329.371818 
L 289.161084 334.404286 
L 290.21502 331.888052 
L 291.268956 326.855584 
L 293.376827 331.888052 
L 295.484699 326.855584 
L 296.538635 329.371818 
L 297.59257 339.436753 
L 298.646506 341.952987 
L 301.808313 341.952987 
L 303.916185 346.985455 
L 306.024056 346.985455 
L 307.077992 344.469221 
L 308.131928 349.501688 
L 309.185863 352.017922 
L 310.239799 352.017922 
L 312.347671 346.985455 
L 314.455542 336.920519 
L 315.509478 334.404286 
L 316.563414 339.436753 
L 317.617349 336.920519 
L 318.671285 341.952987 
L 319.725221 341.952987 
L 320.779157 336.920519 
L 322.887028 341.952987 
L 323.940964 341.952987 
L 326.048835 336.920519 
L 328.156707 336.920519 
L 329.210643 334.404286 
L 330.264578 334.404286 
L 333.426386 326.855584 
L 334.480321 331.888052 
L 335.534257 334.404286 
L 336.588193 334.404286 
L 337.642129 331.888052 
L 338.696064 331.888052 
L 338.696064 331.888052 
" style="fill:none;stroke:#fc8d62;stroke-linecap:square;stroke-width:2;"/>
   </g>
   <g id="line2d_55">
    <path clip-path="url(#p13c52334a1)" d="M 76.266064 321.823117 
L 77.32 324.339351 
L 78.373936 324.339351 
L 79.427871 326.855584 
L 82.589679 326.855584 
L 83.643614 321.823117 
L 84.69755 321.823117 
L 86.805422 326.855584 
L 87.859357 331.888052 
L 88.913293 334.404286 
L 89.967229 326.855584 
L 91.021165 326.855584 
L 92.0751 324.339351 
L 93.129036 316.790649 
L 94.182972 314.274416 
L 95.236908 319.306883 
L 96.290843 311.758182 
L 99.452651 304.209481 
L 101.560522 309.241948 
L 102.614458 309.241948 
L 103.668394 314.274416 
L 104.722329 311.758182 
L 108.938072 311.758182 
L 111.045944 321.823117 
L 112.09988 324.339351 
L 113.153815 319.306883 
L 114.207751 319.306883 
L 115.261687 321.823117 
L 116.315622 321.823117 
L 117.369558 326.855584 
L 118.423494 329.371818 
L 119.47743 326.855584 
L 121.585301 331.888052 
L 122.639237 326.855584 
L 123.693173 324.339351 
L 125.801044 329.371818 
L 128.962851 321.823117 
L 130.016787 316.790649 
L 131.070723 319.306883 
L 132.124659 316.790649 
L 133.178594 311.758182 
L 134.23253 314.274416 
L 135.286466 309.241948 
L 136.340402 314.274416 
L 137.394337 306.725714 
L 138.448273 309.241948 
L 142.664016 309.241948 
L 144.771888 319.306883 
L 145.825823 316.790649 
L 146.879759 319.306883 
L 147.933695 319.306883 
L 148.987631 311.758182 
L 150.041566 311.758182 
L 151.095502 306.725714 
L 152.149438 309.241948 
L 153.203373 306.725714 
L 154.257309 306.725714 
L 155.311245 309.241948 
L 156.365181 309.241948 
L 157.419116 306.725714 
L 158.473052 306.725714 
L 160.580924 311.758182 
L 161.634859 316.790649 
L 162.688795 316.790649 
L 163.742731 309.241948 
L 164.796667 309.241948 
L 165.850602 306.725714 
L 166.904538 306.725714 
L 169.01241 311.758182 
L 170.066345 311.758182 
L 171.120281 316.790649 
L 172.174217 311.758182 
L 174.282088 311.758182 
L 175.336024 319.306883 
L 176.38996 324.339351 
L 177.443896 316.790649 
L 179.551767 316.790649 
L 180.605703 314.274416 
L 181.659639 319.306883 
L 182.713574 321.823117 
L 183.76751 326.855584 
L 184.821446 329.371818 
L 185.875382 326.855584 
L 186.929317 329.371818 
L 189.037189 329.371818 
L 190.091124 331.888052 
L 192.198996 331.888052 
L 193.252932 329.371818 
L 194.306867 324.339351 
L 195.360803 324.339351 
L 197.468675 314.274416 
L 199.576546 309.241948 
L 200.630482 316.790649 
L 201.684418 314.274416 
L 203.792289 324.339351 
L 204.846225 319.306883 
L 205.900161 319.306883 
L 206.954096 324.339351 
L 208.008032 326.855584 
L 209.061968 326.855584 
L 210.115904 329.371818 
L 213.277711 321.823117 
L 214.331647 324.339351 
L 215.385582 329.371818 
L 219.601325 329.371818 
L 220.655261 326.855584 
L 221.709197 329.371818 
L 222.763133 329.371818 
L 224.871004 324.339351 
L 225.92494 324.339351 
L 228.032811 334.404286 
L 229.086747 334.404286 
L 230.140683 339.436753 
L 231.194618 334.404286 
L 233.30249 334.404286 
L 234.356426 339.436753 
L 235.410361 339.436753 
L 236.464297 344.469221 
L 237.518233 346.985455 
L 239.626104 341.952987 
L 241.733976 341.952987 
L 242.787912 339.436753 
L 243.841847 344.469221 
L 244.895783 344.469221 
L 247.003655 349.501688 
L 248.05759 346.985455 
L 249.111526 346.985455 
L 250.165462 341.952987 
L 251.219398 339.436753 
L 252.273333 344.469221 
L 253.327269 336.920519 
L 255.435141 341.952987 
L 256.489076 331.888052 
L 257.543012 339.436753 
L 258.596948 341.952987 
L 259.650884 341.952987 
L 260.704819 334.404286 
L 261.758755 336.920519 
L 263.866627 331.888052 
L 267.028434 331.888052 
L 268.082369 339.436753 
L 270.190241 339.436753 
L 271.244177 341.952987 
L 272.298112 336.920519 
L 273.352048 336.920519 
L 274.405984 339.436753 
L 275.45992 334.404286 
L 276.513855 326.855584 
L 278.621727 321.823117 
L 281.783534 329.371818 
L 282.83747 334.404286 
L 283.891406 331.888052 
L 284.945341 334.404286 
L 285.999277 334.404286 
L 287.053213 339.436753 
L 288.107149 339.436753 
L 289.161084 344.469221 
L 290.21502 344.469221 
L 291.268956 341.952987 
L 292.322892 344.469221 
L 293.376827 341.952987 
L 294.430763 344.469221 
L 296.538635 344.469221 
L 297.59257 346.985455 
L 298.646506 344.469221 
L 300.754378 349.501688 
L 301.808313 346.985455 
L 302.862249 341.952987 
L 306.024056 334.404286 
L 307.077992 341.952987 
L 308.131928 344.469221 
L 311.293735 344.469221 
L 312.347671 352.017922 
L 314.455542 357.05039 
L 315.509478 352.017922 
L 316.563414 349.501688 
L 319.725221 349.501688 
L 321.833092 344.469221 
L 322.887028 344.469221 
L 323.940964 339.436753 
L 324.9949 346.985455 
L 328.156707 346.985455 
L 329.210643 349.501688 
L 332.37245 349.501688 
L 333.426386 352.017922 
L 334.480321 352.017922 
L 335.534257 349.501688 
L 336.588193 349.501688 
L 337.642129 346.985455 
L 338.696064 346.985455 
L 338.696064 346.985455 
" style="fill:none;stroke:#8da0cb;stroke-linecap:square;stroke-width:2;"/>
   </g>
   <g id="line2d_56">
    <path clip-path="url(#p13c52334a1)" d="M 76.266064 352.017922 
L 81.535743 352.017922 
L 82.589679 357.05039 
L 83.643614 359.566623 
L 84.69755 359.566623 
L 85.751486 362.082857 
L 86.805422 357.05039 
L 87.859357 354.534156 
L 88.913293 354.534156 
L 89.967229 352.017922 
L 91.021165 341.952987 
L 92.0751 341.952987 
L 93.129036 336.920519 
L 94.182972 326.855584 
L 96.290843 326.855584 
L 97.344779 324.339351 
L 98.398715 319.306883 
L 101.560522 319.306883 
L 103.668394 309.241948 
L 104.722329 314.274416 
L 105.776265 309.241948 
L 106.830201 314.274416 
L 107.884137 311.758182 
L 108.938072 314.274416 
L 109.992008 311.758182 
L 112.09988 311.758182 
L 113.153815 316.790649 
L 115.261687 321.823117 
L 116.315622 316.790649 
L 118.423494 311.758182 
L 119.47743 311.758182 
L 120.531365 316.790649 
L 121.585301 316.790649 
L 123.693173 321.823117 
L 124.747108 329.371818 
L 125.801044 324.339351 
L 126.85498 326.855584 
L 127.908916 331.888052 
L 128.962851 324.339351 
L 130.016787 324.339351 
L 131.070723 321.823117 
L 132.124659 324.339351 
L 133.178594 324.339351 
L 134.23253 326.855584 
L 135.286466 326.855584 
L 136.340402 324.339351 
L 137.394337 334.404286 
L 138.448273 331.888052 
L 140.556145 331.888052 
L 141.61008 329.371818 
L 142.664016 324.339351 
L 146.879759 314.274416 
L 147.933695 316.790649 
L 151.095502 331.888052 
L 152.149438 331.888052 
L 153.203373 336.920519 
L 155.311245 331.888052 
L 156.365181 331.888052 
L 157.419116 334.404286 
L 160.580924 326.855584 
L 161.634859 321.823117 
L 162.688795 321.823117 
L 165.850602 329.371818 
L 166.904538 324.339351 
L 167.958474 329.371818 
L 169.01241 329.371818 
L 170.066345 334.404286 
L 171.120281 334.404286 
L 172.174217 331.888052 
L 173.228153 331.888052 
L 174.282088 334.404286 
L 175.336024 331.888052 
L 176.38996 334.404286 
L 177.443896 339.436753 
L 179.551767 334.404286 
L 180.605703 336.920519 
L 181.659639 334.404286 
L 182.713574 326.855584 
L 183.76751 324.339351 
L 184.821446 319.306883 
L 185.875382 324.339351 
L 187.983253 324.339351 
L 189.037189 326.855584 
L 190.091124 324.339351 
L 191.14506 331.888052 
L 192.198996 326.855584 
L 193.252932 326.855584 
L 194.306867 329.371818 
L 195.360803 329.371818 
L 196.414739 331.888052 
L 197.468675 336.920519 
L 198.52261 339.436753 
L 199.576546 336.920519 
L 201.684418 341.952987 
L 202.738353 334.404286 
L 204.846225 339.436753 
L 205.900161 334.404286 
L 206.954096 336.920519 
L 208.008032 334.404286 
L 209.061968 339.436753 
L 210.115904 339.436753 
L 211.169839 336.920519 
L 213.277711 336.920519 
L 214.331647 331.888052 
L 216.439518 326.855584 
L 217.493454 326.855584 
L 218.54739 329.371818 
L 219.601325 329.371818 
L 220.655261 331.888052 
L 221.709197 324.339351 
L 222.763133 324.339351 
L 223.817068 329.371818 
L 224.871004 326.855584 
L 226.978876 316.790649 
L 228.032811 319.306883 
L 229.086747 319.306883 
L 230.140683 314.274416 
L 231.194618 319.306883 
L 232.248554 321.823117 
L 234.356426 306.725714 
L 235.410361 306.725714 
L 236.464297 299.177013 
L 237.518233 296.660779 
L 238.572169 299.177013 
L 239.626104 296.660779 
L 240.68004 296.660779 
L 241.733976 291.628312 
L 242.787912 289.112078 
L 244.895783 289.112078 
L 245.949719 281.563377 
L 247.003655 276.530909 
L 249.111526 281.563377 
L 250.165462 286.595844 
L 251.219398 286.595844 
L 252.273333 289.112078 
L 253.327269 289.112078 
L 255.435141 294.144545 
L 256.489076 299.177013 
L 257.543012 291.628312 
L 258.596948 286.595844 
L 259.650884 289.112078 
L 260.704819 294.144545 
L 263.866627 301.693247 
L 267.028434 301.693247 
L 268.082369 306.725714 
L 269.136305 314.274416 
L 271.244177 314.274416 
L 272.298112 316.790649 
L 273.352048 309.241948 
L 274.405984 306.725714 
L 275.45992 309.241948 
L 276.513855 316.790649 
L 278.621727 316.790649 
L 280.729598 311.758182 
L 281.783534 311.758182 
L 282.83747 309.241948 
L 283.891406 314.274416 
L 284.945341 321.823117 
L 285.999277 319.306883 
L 287.053213 319.306883 
L 288.107149 314.274416 
L 289.161084 304.209481 
L 290.21502 304.209481 
L 291.268956 309.241948 
L 292.322892 309.241948 
L 293.376827 314.274416 
L 296.538635 314.274416 
L 297.59257 309.241948 
L 298.646506 309.241948 
L 300.754378 304.209481 
L 301.808313 311.758182 
L 302.862249 314.274416 
L 303.916185 314.274416 
L 304.97012 316.790649 
L 309.185863 306.725714 
L 311.293735 306.725714 
L 312.347671 304.209481 
L 315.509478 311.758182 
L 316.563414 309.241948 
L 317.617349 309.241948 
L 318.671285 306.725714 
L 322.887028 316.790649 
L 323.940964 321.823117 
L 324.9949 321.823117 
L 327.102771 326.855584 
L 328.156707 326.855584 
L 329.210643 324.339351 
L 330.264578 324.339351 
L 331.318514 326.855584 
L 332.37245 324.339351 
L 333.426386 324.339351 
L 334.480321 321.823117 
L 336.588193 321.823117 
L 337.642129 326.855584 
L 338.696064 326.855584 
L 338.696064 326.855584 
" style="fill:none;stroke:#e78ac3;stroke-linecap:square;stroke-width:2;"/>
   </g>
   <g id="patch_8">
    <path d="M 77.32 386.44 
L 77.32 223.69 
" style="fill:none;stroke:#000000;stroke-linecap:square;stroke-linejoin:miter;stroke-width:0.8;"/>
   </g>
   <g id="patch_9">
    <path d="M 77.32 386.44 
L 339.75 386.44 
" style="fill:none;stroke:#000000;stroke-linecap:square;stroke-linejoin:miter;stroke-width:0.8;"/>
   </g>
   <g id="text_23">
    <!-- IG -->
    <defs>
     <path d="M 9.1875 72.90625 
L 27.984375 72.90625 
L 27.984375 0 
L 9.1875 0 
z
" id="DejaVuSans-Bold-73"/>
    </defs>
    <g style="fill:#008fd5;" transform="translate(90.4415 242.465312)scale(0.14 -0.14)">
     <use xlink:href="#DejaVuSans-Bold-73"/>
     <use x="37.207031" xlink:href="#DejaVuSans-Bold-71"/>
    </g>
   </g>
  </g>
 </g>
 <defs>
  <clipPath id="p24bed2897a">
   <rect height="162.75" width="262.43" x="77.32" y="42.68"/>
  </clipPath>
  <clipPath id="p13c52334a1">
   <rect height="162.75" width="262.43" x="77.32" y="223.69"/>
  </clipPath>
 </defs>
</svg>
