<?xml version="1.0" encoding="utf-8" standalone="no"?>
<!DOCTYPE svg PUBLIC "-//W3C//DTD SVG 1.1//EN"
  "http://www.w3.org/Graphics/SVG/1.1/DTD/svg11.dtd">
<!-- Created with matplotlib (https://matplotlib.org/) -->
<svg height="252pt" version="1.1" viewBox="0 0 360 252" width="360pt" xmlns="http://www.w3.org/2000/svg" xmlns:xlink="http://www.w3.org/1999/xlink">
 <defs>
  <style type="text/css">
*{stroke-linecap:butt;stroke-linejoin:round;}
  </style>
 </defs>
 <g id="figure_1">
  <g id="patch_1">
   <path d="M 0 252 
L 360 252 
L 360 0 
L 0 0 
z
" style="fill:#ffffff;"/>
  </g>
  <g id="axes_1">
   <g id="patch_2">
    <path d="M 74.81 206.44 
L 339.705 206.44 
L 339.705 10.8 
L 74.81 10.8 
z
" style="fill:#ffffff;"/>
   </g>
   <g id="PolyCollection_1">
    <defs>
     <path d="M 71.893208 -208.574286 
L 71.893208 -208.612381 
L 74.344029 -208.623365 
L 76.79485 -208.637984 
L 79.245672 -208.655939 
L 81.696493 -208.676121 
L 84.147314 -208.696599 
L 86.598136 -208.71488 
L 89.048957 -208.728426 
L 91.499779 -208.735327 
L 93.9506 -208.734906 
L 96.401421 -208.728058 
L 98.852243 -208.717184 
L 101.303064 -208.705732 
L 103.753886 -208.697477 
L 106.204707 -208.695718 
L 108.655528 -208.702597 
L 111.10635 -208.718648 
L 113.557171 -208.74266 
L 116.007992 -208.771854 
L 118.458814 -208.802372 
L 120.909635 -208.83 
L 123.360457 -208.851011 
L 125.811278 -208.862954 
L 128.262099 -208.865194 
L 130.712921 -208.859035 
L 133.163742 -208.847373 
L 135.614564 -208.833946 
L 138.065385 -208.822415 
L 140.516206 -208.815537 
L 142.967028 -208.814718 
L 145.417849 -208.820051 
L 147.86867 -208.830805 
L 150.319492 -208.846139 
L 152.770313 -208.865771 
L 155.221135 -208.890341 
L 157.671956 -208.921358 
L 160.122777 -208.960731 
L 162.573599 -209.010016 
L 165.02442 -209.06961 
L 167.475242 -209.138156 
L 169.926063 -209.212431 
L 172.376884 -209.287857 
L 174.827706 -209.359608 
L 177.278527 -209.424026 
L 179.729348 -209.4799 
L 182.18017 -209.529193 
L 184.630991 -209.576961 
L 187.081813 -209.630515 
L 189.532634 -209.698074 
L 191.983455 -209.787222 
L 194.434277 -209.903402 
L 196.885098 -210.048596 
L 199.33592 -210.220341 
L 201.786741 -210.411384 
L 204.237562 -210.610357 
L 206.688384 -210.803765 
L 209.139205 -210.97915 
L 211.590026 -211.128625 
L 214.040848 -211.251496 
L 216.491669 -211.354673 
L 218.942491 -211.450289 
L 221.393312 -211.551139 
L 223.844133 -211.665713 
L 226.294955 -211.794988 
L 228.745776 -211.932593 
L 231.196597 -212.068521 
L 233.647419 -212.195036 
L 236.09824 -212.312437 
L 238.549062 -212.432392 
L 240.999883 -212.577487 
L 243.450704 -212.777056 
L 245.901526 -213.060645 
L 248.352347 -213.451223 
L 250.803169 -213.960356 
L 253.25399 -214.58699 
L 255.704811 -215.320509 
L 258.155633 -216.147525 
L 260.606454 -217.060653 
L 263.057275 -218.066667 
L 265.508097 -219.191034 
L 267.958918 -220.476034 
L 270.40974 -221.970628 
L 272.860561 -223.711932 
L 275.311382 -225.700758 
L 277.762204 -227.876709 
L 280.213025 -230.1012 
L 282.663847 -232.157649 
L 285.114668 -233.775593 
L 287.565489 -234.678667 
L 290.016311 -234.647043 
L 292.467132 -233.576706 
L 294.917953 -231.51547 
L 297.368775 -228.661547 
L 299.819596 -225.323055 
L 302.270418 -221.851011 
L 304.721239 -218.567324 
L 307.17206 -215.709308 
L 309.622882 -213.40389 
L 312.073703 -211.672647 
L 314.524525 -210.458712 
L 314.524525 -206.727955 
L 314.524525 -206.727955 
L 312.073703 -205.514019 
L 309.622882 -203.782776 
L 307.17206 -201.477359 
L 304.721239 -198.619342 
L 302.270418 -195.335655 
L 299.819596 -191.863612 
L 297.368775 -188.52512 
L 294.917953 -185.671196 
L 292.467132 -183.609961 
L 290.016311 -182.539623 
L 287.565489 -182.508 
L 285.114668 -183.411074 
L 282.663847 -185.029017 
L 280.213025 -187.085467 
L 277.762204 -189.309957 
L 275.311382 -191.485909 
L 272.860561 -193.474734 
L 270.40974 -195.216039 
L 267.958918 -196.710632 
L 265.508097 -197.995633 
L 263.057275 -199.12 
L 260.606454 -200.126013 
L 258.155633 -201.039141 
L 255.704811 -201.866158 
L 253.25399 -202.599677 
L 250.803169 -203.22631 
L 248.352347 -203.735444 
L 245.901526 -204.126022 
L 243.450704 -204.40961 
L 240.999883 -204.609179 
L 238.549062 -204.754274 
L 236.09824 -204.87423 
L 233.647419 -204.991631 
L 231.196597 -205.118145 
L 228.745776 -205.254074 
L 226.294955 -205.391679 
L 223.844133 -205.520954 
L 221.393312 -205.635527 
L 218.942491 -205.736378 
L 216.491669 -205.831993 
L 214.040848 -205.935171 
L 211.590026 -206.058042 
L 209.139205 -206.207516 
L 206.688384 -206.382901 
L 204.237562 -206.57631 
L 201.786741 -206.775283 
L 199.33592 -206.966326 
L 196.885098 -207.138071 
L 194.434277 -207.283264 
L 191.983455 -207.399445 
L 189.532634 -207.488593 
L 187.081813 -207.556152 
L 184.630991 -207.609705 
L 182.18017 -207.657473 
L 179.729348 -207.706767 
L 177.278527 -207.762641 
L 174.827706 -207.827059 
L 172.376884 -207.89881 
L 169.926063 -207.974235 
L 167.475242 -208.04851 
L 165.02442 -208.117057 
L 162.573599 -208.176651 
L 160.122777 -208.225935 
L 157.671956 -208.265308 
L 155.221135 -208.296325 
L 152.770313 -208.320895 
L 150.319492 -208.340527 
L 147.86867 -208.355862 
L 145.417849 -208.366616 
L 142.967028 -208.371949 
L 140.516206 -208.371129 
L 138.065385 -208.364252 
L 135.614564 -208.35272 
L 133.163742 -208.339294 
L 130.712921 -208.327631 
L 128.262099 -208.321473 
L 125.811278 -208.323713 
L 123.360457 -208.335656 
L 120.909635 -208.356667 
L 118.458814 -208.384295 
L 116.007992 -208.414813 
L 113.557171 -208.444007 
L 111.10635 -208.468018 
L 108.655528 -208.48407 
L 106.204707 -208.490949 
L 103.753886 -208.48919 
L 101.303064 -208.480935 
L 98.852243 -208.469483 
L 96.401421 -208.458609 
L 93.9506 -208.451761 
L 91.499779 -208.45134 
L 89.048957 -208.458241 
L 86.598136 -208.471787 
L 84.147314 -208.490067 
L 81.696493 -208.510546 
L 79.245672 -208.530728 
L 76.79485 -208.548683 
L 74.344029 -208.563302 
L 71.893208 -208.574286 
z
" id="m9efd7e701b" style="stroke:#ffffff;stroke-width:1.5;"/>
    </defs>
    <g clip-path="url(#p3f2165cd36)">
     <use style="fill:#d3d3d3;stroke:#ffffff;stroke-width:1.5;" x="0" xlink:href="#m9efd7e701b" y="252"/>
    </g>
   </g>
   <g id="PolyCollection_2">
    <defs>
     <path d="M 8.100404 -143.356988 
L 8.100404 -143.403012 
L 11.323466 -143.41356 
L 14.546529 -143.427144 
L 17.769591 -143.443817 
L 20.992654 -143.463292 
L 24.215716 -143.484895 
L 27.438779 -143.507603 
L 30.661841 -143.530168 
L 33.884904 -143.551316 
L 37.107966 -143.569988 
L 40.331029 -143.585557 
L 43.554091 -143.597975 
L 46.777154 -143.607789 
L 50.000216 -143.616031 
L 53.223278 -143.624011 
L 56.446341 -143.633072 
L 59.669403 -143.644381 
L 62.892466 -143.658799 
L 66.115528 -143.676871 
L 69.338591 -143.69888 
L 72.561653 -143.724956 
L 75.784716 -143.755144 
L 79.007778 -143.789426 
L 82.230841 -143.827674 
L 85.453903 -143.869562 
L 88.676966 -143.914503 
L 91.900028 -143.961645 
L 95.123091 -144.009971 
L 98.346153 -144.058478 
L 101.569216 -144.106422 
L 104.792278 -144.153541 
L 108.01534 -144.200197 
L 111.238403 -144.247378 
L 114.461465 -144.296521 
L 117.684528 -144.349198 
L 120.90759 -144.406691 
L 124.130653 -144.469581 
L 127.353715 -144.537442 
L 130.576778 -144.60876 
L 133.79984 -144.681124 
L 137.022903 -144.751716 
L 140.245965 -144.818009 
L 143.469028 -144.878532 
L 146.69209 -144.933524 
L 149.915153 -144.985268 
L 153.138215 -145.037989 
L 156.361278 -145.097258 
L 159.58434 -145.169015 
L 162.807402 -145.258375 
L 166.030465 -145.36851 
L 169.253527 -145.499842 
L 172.47659 -145.649772 
L 175.699652 -145.812998 
L 178.922715 -145.982385 
L 182.145777 -146.150196 
L 185.36884 -146.309428 
L 188.591902 -146.454991 
L 191.814965 -146.584514 
L 195.038027 -146.698655 
L 198.26109 -146.800931 
L 201.484152 -146.897154 
L 204.707215 -146.994641 
L 207.930277 -147.101359 
L 211.15334 -147.225151 
L 214.376402 -147.373123 
L 217.599464 -147.551239 
L 220.822527 -147.764122 
L 224.045589 -148.015051 
L 227.268652 -148.306128 
L 230.491714 -148.638583 
L 233.714777 -149.013139 
L 236.937839 -149.430368 
L 240.160902 -149.890927 
L 243.383964 -150.395561 
L 246.607027 -150.944782 
L 249.830089 -151.538171 
L 253.053152 -152.173279 
L 256.276214 -152.84419 
L 259.499277 -153.53987 
L 262.722339 -154.242532 
L 265.945402 -154.92639 
L 269.168464 -155.55723 
L 272.391526 -156.093327 
L 275.614589 -156.488062 
L 278.837651 -156.694393 
L 282.060714 -156.670836 
L 285.283776 -156.388116 
L 288.506839 -155.835241 
L 291.729901 -155.023577 
L 294.952964 -153.98773 
L 298.176026 -152.78269 
L 301.399089 -151.47751 
L 304.622151 -150.146685 
L 307.845214 -148.860916 
L 311.068276 -147.679079 
L 314.291339 -146.642813 
L 317.514401 -145.774433 
L 320.737464 -145.078043 
L 323.960526 -144.543077 
L 327.183588 -144.149118 
L 327.183588 -142.610882 
L 327.183588 -142.610882 
L 323.960526 -142.216923 
L 320.737464 -141.681957 
L 317.514401 -140.985567 
L 314.291339 -140.117187 
L 311.068276 -139.080921 
L 307.845214 -137.899084 
L 304.622151 -136.613315 
L 301.399089 -135.28249 
L 298.176026 -133.97731 
L 294.952964 -132.77227 
L 291.729901 -131.736423 
L 288.506839 -130.924759 
L 285.283776 -130.371884 
L 282.060714 -130.089164 
L 278.837651 -130.065607 
L 275.614589 -130.271938 
L 272.391526 -130.666673 
L 269.168464 -131.20277 
L 265.945402 -131.83361 
L 262.722339 -132.517468 
L 259.499277 -133.22013 
L 256.276214 -133.91581 
L 253.053152 -134.586721 
L 249.830089 -135.221829 
L 246.607027 -135.815218 
L 243.383964 -136.364439 
L 240.160902 -136.869073 
L 236.937839 -137.329632 
L 233.714777 -137.746861 
L 230.491714 -138.121417 
L 227.268652 -138.453872 
L 224.045589 -138.744949 
L 220.822527 -138.995878 
L 217.599464 -139.208761 
L 214.376402 -139.386877 
L 211.15334 -139.534849 
L 207.930277 -139.658641 
L 204.707215 -139.765359 
L 201.484152 -139.862846 
L 198.26109 -139.959069 
L 195.038027 -140.061345 
L 191.814965 -140.175486 
L 188.591902 -140.305009 
L 185.36884 -140.450572 
L 182.145777 -140.609804 
L 178.922715 -140.777615 
L 175.699652 -140.947002 
L 172.47659 -141.110228 
L 169.253527 -141.260158 
L 166.030465 -141.39149 
L 162.807402 -141.501625 
L 159.58434 -141.590985 
L 156.361278 -141.662742 
L 153.138215 -141.722011 
L 149.915153 -141.774732 
L 146.69209 -141.826476 
L 143.469028 -141.881468 
L 140.245965 -141.941991 
L 137.022903 -142.008284 
L 133.79984 -142.078876 
L 130.576778 -142.15124 
L 127.353715 -142.222558 
L 124.130653 -142.290419 
L 120.90759 -142.353309 
L 117.684528 -142.410802 
L 114.461465 -142.463479 
L 111.238403 -142.512622 
L 108.01534 -142.559803 
L 104.792278 -142.606459 
L 101.569216 -142.653578 
L 98.346153 -142.701522 
L 95.123091 -142.750029 
L 91.900028 -142.798355 
L 88.676966 -142.845497 
L 85.453903 -142.890438 
L 82.230841 -142.932326 
L 79.007778 -142.970574 
L 75.784716 -143.004856 
L 72.561653 -143.035044 
L 69.338591 -143.06112 
L 66.115528 -143.083129 
L 62.892466 -143.101201 
L 59.669403 -143.115619 
L 56.446341 -143.126928 
L 53.223278 -143.135989 
L 50.000216 -143.143969 
L 46.777154 -143.152211 
L 43.554091 -143.162025 
L 40.331029 -143.174443 
L 37.107966 -143.190012 
L 33.884904 -143.208684 
L 30.661841 -143.229832 
L 27.438779 -143.252397 
L 24.215716 -143.275105 
L 20.992654 -143.296708 
L 17.769591 -143.316183 
L 14.546529 -143.332856 
L 11.323466 -143.34644 
L 8.100404 -143.356988 
z
" id="me32637563a" style="stroke:#ffffff;stroke-width:1.5;"/>
    </defs>
    <g clip-path="url(#p3f2165cd36)">
     <use style="fill:#d3d3d3;stroke:#ffffff;stroke-width:1.5;" x="0" xlink:href="#me32637563a" y="252"/>
    </g>
   </g>
   <g id="PolyCollection_3">
    <defs>
     <path d="M 4.835397 -78.144334 
L 4.835397 -78.189 
L 8.126054 -78.199495 
L 11.416711 -78.213527 
L 14.707369 -78.231676 
L 17.998026 -78.254397 
L 21.288683 -78.281954 
L 24.57934 -78.31436 
L 27.869998 -78.351348 
L 31.160655 -78.392372 
L 34.451312 -78.43663 
L 37.741969 -78.483121 
L 41.032627 -78.53071 
L 44.323284 -78.578201 
L 47.613941 -78.624399 
L 50.904598 -78.668177 
L 54.195256 -78.708533 
L 57.485913 -78.744652 
L 60.77657 -78.775975 
L 64.067227 -78.802273 
L 67.357885 -78.82373 
L 70.648542 -78.841021 
L 73.939199 -78.855363 
L 77.229856 -78.86854 
L 80.520513 -78.882852 
L 83.811171 -78.900993 
L 87.101828 -78.925841 
L 90.392485 -78.960161 
L 93.683142 -79.006256 
L 96.9738 -79.065617 
L 100.264457 -79.138621 
L 103.555114 -79.224342 
L 106.845771 -79.320538 
L 110.136429 -79.423818 
L 113.427086 -79.530005 
L 116.717743 -79.63465 
L 120.0084 -79.733655 
L 123.299058 -79.823906 
L 126.589715 -79.90384 
L 129.880372 -79.973847 
L 133.171029 -80.036418 
L 136.461687 -80.095979 
L 139.752344 -80.158387 
L 143.043001 -80.230128 
L 146.333658 -80.317306 
L 149.624316 -80.424598 
L 152.914973 -80.554349 
L 156.20563 -80.706013 
L 159.496287 -80.876076 
L 162.786945 -81.058518 
L 166.077602 -81.245763 
L 169.368259 -81.429941 
L 172.658916 -81.604237 
L 175.949574 -81.76405 
L 179.240231 -81.907741 
L 182.530888 -82.036832 
L 185.821545 -82.155655 
L 189.112203 -82.270534 
L 192.40286 -82.388703 
L 195.693517 -82.517182 
L 198.984174 -82.661824 
L 202.274832 -82.82668 
L 205.565489 -83.013766 
L 208.856146 -83.2232 
L 212.146803 -83.453644 
L 215.43746 -83.702907 
L 218.728118 -83.968567 
L 222.018775 -84.248489 
L 225.309432 -84.541149 
L 228.600089 -84.845714 
L 231.890747 -85.161894 
L 235.181404 -85.489614 
L 238.472061 -85.828543 
L 241.762718 -86.177555 
L 245.053376 -86.534137 
L 248.344033 -86.893774 
L 251.63469 -87.249348 
L 254.925347 -87.59061 
L 258.216005 -87.903845 
L 261.506662 -88.171902 
L 264.797319 -88.374751 
L 268.087976 -88.490706 
L 271.378634 -88.498324 
L 274.669291 -88.37884 
L 277.959948 -88.118822 
L 281.250605 -87.712625 
L 284.541263 -87.164157 
L 287.83192 -86.487572 
L 291.122577 -85.706642 
L 294.413234 -84.852829 
L 297.703892 -83.962297 
L 300.994549 -83.072331 
L 304.285206 -82.217715 
L 307.575863 -81.427636 
L 310.866521 -80.723523 
L 314.157178 -80.11807 
L 317.447835 -79.615426 
L 320.738492 -79.212362 
L 324.02915 -78.900077 
L 327.319807 -78.666258 
L 330.610464 -78.497051 
L 330.610464 -77.836282 
L 330.610464 -77.836282 
L 327.319807 -77.667076 
L 324.02915 -77.433257 
L 320.738492 -77.120972 
L 317.447835 -76.717908 
L 314.157178 -76.215263 
L 310.866521 -75.60981 
L 307.575863 -74.905697 
L 304.285206 -74.115618 
L 300.994549 -73.261003 
L 297.703892 -72.371036 
L 294.413234 -71.480505 
L 291.122577 -70.626692 
L 287.83192 -69.845761 
L 284.541263 -69.169176 
L 281.250605 -68.620708 
L 277.959948 -68.214511 
L 274.669291 -67.954494 
L 271.378634 -67.835009 
L 268.087976 -67.842628 
L 264.797319 -67.958582 
L 261.506662 -68.161431 
L 258.216005 -68.429488 
L 254.925347 -68.742724 
L 251.63469 -69.083985 
L 248.344033 -69.439559 
L 245.053376 -69.799196 
L 241.762718 -70.155778 
L 238.472061 -70.50479 
L 235.181404 -70.84372 
L 231.890747 -71.171439 
L 228.600089 -71.48762 
L 225.309432 -71.792184 
L 222.018775 -72.084844 
L 218.728118 -72.364767 
L 215.43746 -72.630426 
L 212.146803 -72.879689 
L 208.856146 -73.110134 
L 205.565489 -73.319568 
L 202.274832 -73.506653 
L 198.984174 -73.67151 
L 195.693517 -73.816151 
L 192.40286 -73.94463 
L 189.112203 -74.062799 
L 185.821545 -74.177678 
L 182.530888 -74.296501 
L 179.240231 -74.425593 
L 175.949574 -74.569283 
L 172.658916 -74.729096 
L 169.368259 -74.903393 
L 166.077602 -75.08757 
L 162.786945 -75.274815 
L 159.496287 -75.457257 
L 156.20563 -75.62732 
L 152.914973 -75.778984 
L 149.624316 -75.908736 
L 146.333658 -76.016027 
L 143.043001 -76.103206 
L 139.752344 -76.174946 
L 136.461687 -76.237354 
L 133.171029 -76.296915 
L 129.880372 -76.359486 
L 126.589715 -76.429493 
L 123.299058 -76.509427 
L 120.0084 -76.599678 
L 116.717743 -76.698683 
L 113.427086 -76.803329 
L 110.136429 -76.909515 
L 106.845771 -77.012795 
L 103.555114 -77.108992 
L 100.264457 -77.194713 
L 96.9738 -77.267716 
L 93.683142 -77.327077 
L 90.392485 -77.373173 
L 87.101828 -77.407492 
L 83.811171 -77.43234 
L 80.520513 -77.450482 
L 77.229856 -77.464793 
L 73.939199 -77.47797 
L 70.648542 -77.492313 
L 67.357885 -77.509603 
L 64.067227 -77.531061 
L 60.77657 -77.557358 
L 57.485913 -77.588681 
L 54.195256 -77.6248 
L 50.904598 -77.665156 
L 47.613941 -77.708934 
L 44.323284 -77.755132 
L 41.032627 -77.802623 
L 37.741969 -77.850213 
L 34.451312 -77.896703 
L 31.160655 -77.940961 
L 27.869998 -77.981985 
L 24.57934 -78.018974 
L 21.288683 -78.05138 
L 17.998026 -78.078936 
L 14.707369 -78.101657 
L 11.416711 -78.119806 
L 8.126054 -78.133838 
L 4.835397 -78.144334 
z
" id="m5e54110356" style="stroke:#ffffff;stroke-width:1.5;"/>
    </defs>
    <g clip-path="url(#p3f2165cd36)">
     <use style="fill:#d3d3d3;stroke:#ffffff;stroke-width:1.5;" x="0" xlink:href="#m5e54110356" y="252"/>
    </g>
   </g>
   <g id="matplotlib.axis_1">
    <g id="xtick_1">
     <g id="line2d_1">
      <path clip-path="url(#p3f2165cd36)" d="M 74.81 206.44 
L 74.81 10.8 
" style="fill:none;stroke:#808080;stroke-dasharray:0.8,1.32;stroke-dashoffset:0;stroke-width:0.8;"/>
     </g>
     <g id="line2d_2">
      <defs>
       <path d="M 0 0 
L 0 3.5 
" id="m748aa05523" style="stroke:#000000;stroke-width:0.8;"/>
      </defs>
      <g>
       <use style="stroke:#000000;stroke-width:0.8;" x="74.81" xlink:href="#m748aa05523" y="206.44"/>
      </g>
     </g>
     <g id="text_1">
      <!-- 200 -->
      <defs>
       <path d="M 19.1875 8.296875 
L 53.609375 8.296875 
L 53.609375 0 
L 7.328125 0 
L 7.328125 8.296875 
Q 12.9375 14.109375 22.625 23.890625 
Q 32.328125 33.6875 34.8125 36.53125 
Q 39.546875 41.84375 41.421875 45.53125 
Q 43.3125 49.21875 43.3125 52.78125 
Q 43.3125 58.59375 39.234375 62.25 
Q 35.15625 65.921875 28.609375 65.921875 
Q 23.96875 65.921875 18.8125 64.3125 
Q 13.671875 62.703125 7.8125 59.421875 
L 7.8125 69.390625 
Q 13.765625 71.78125 18.9375 73 
Q 24.125 74.21875 28.421875 74.21875 
Q 39.75 74.21875 46.484375 68.546875 
Q 53.21875 62.890625 53.21875 53.421875 
Q 53.21875 48.921875 51.53125 44.890625 
Q 49.859375 40.875 45.40625 35.40625 
Q 44.1875 33.984375 37.640625 27.21875 
Q 31.109375 20.453125 19.1875 8.296875 
z
" id="DejaVuSans-50"/>
       <path d="M 31.78125 66.40625 
Q 24.171875 66.40625 20.328125 58.90625 
Q 16.5 51.421875 16.5 36.375 
Q 16.5 21.390625 20.328125 13.890625 
Q 24.171875 6.390625 31.78125 6.390625 
Q 39.453125 6.390625 43.28125 13.890625 
Q 47.125 21.390625 47.125 36.375 
Q 47.125 51.421875 43.28125 58.90625 
Q 39.453125 66.40625 31.78125 66.40625 
z
M 31.78125 74.21875 
Q 44.046875 74.21875 50.515625 64.515625 
Q 56.984375 54.828125 56.984375 36.375 
Q 56.984375 17.96875 50.515625 8.265625 
Q 44.046875 -1.421875 31.78125 -1.421875 
Q 19.53125 -1.421875 13.0625 8.265625 
Q 6.59375 17.96875 6.59375 36.375 
Q 6.59375 54.828125 13.0625 64.515625 
Q 19.53125 74.21875 31.78125 74.21875 
z
" id="DejaVuSans-48"/>
      </defs>
      <g transform="translate(65.26625 221.038437)scale(0.1 -0.1)">
       <use xlink:href="#DejaVuSans-50"/>
       <use x="63.623047" xlink:href="#DejaVuSans-48"/>
       <use x="127.246094" xlink:href="#DejaVuSans-48"/>
      </g>
     </g>
    </g>
    <g id="xtick_2">
     <g id="line2d_3">
      <path clip-path="url(#p3f2165cd36)" d="M 118.959167 206.44 
L 118.959167 10.8 
" style="fill:none;stroke:#808080;stroke-dasharray:0.8,1.32;stroke-dashoffset:0;stroke-width:0.8;"/>
     </g>
     <g id="line2d_4">
      <g>
       <use style="stroke:#000000;stroke-width:0.8;" x="118.959167" xlink:href="#m748aa05523" y="206.44"/>
      </g>
     </g>
     <g id="text_2">
      <!-- 300 -->
      <defs>
       <path d="M 40.578125 39.3125 
Q 47.65625 37.796875 51.625 33 
Q 55.609375 28.21875 55.609375 21.1875 
Q 55.609375 10.40625 48.1875 4.484375 
Q 40.765625 -1.421875 27.09375 -1.421875 
Q 22.515625 -1.421875 17.65625 -0.515625 
Q 12.796875 0.390625 7.625 2.203125 
L 7.625 11.71875 
Q 11.71875 9.328125 16.59375 8.109375 
Q 21.484375 6.890625 26.8125 6.890625 
Q 36.078125 6.890625 40.9375 10.546875 
Q 45.796875 14.203125 45.796875 21.1875 
Q 45.796875 27.640625 41.28125 31.265625 
Q 36.765625 34.90625 28.71875 34.90625 
L 20.21875 34.90625 
L 20.21875 43.015625 
L 29.109375 43.015625 
Q 36.375 43.015625 40.234375 45.921875 
Q 44.09375 48.828125 44.09375 54.296875 
Q 44.09375 59.90625 40.109375 62.90625 
Q 36.140625 65.921875 28.71875 65.921875 
Q 24.65625 65.921875 20.015625 65.03125 
Q 15.375 64.15625 9.8125 62.3125 
L 9.8125 71.09375 
Q 15.4375 72.65625 20.34375 73.4375 
Q 25.25 74.21875 29.59375 74.21875 
Q 40.828125 74.21875 47.359375 69.109375 
Q 53.90625 64.015625 53.90625 55.328125 
Q 53.90625 49.265625 50.4375 45.09375 
Q 46.96875 40.921875 40.578125 39.3125 
z
" id="DejaVuSans-51"/>
      </defs>
      <g transform="translate(109.415417 221.038437)scale(0.1 -0.1)">
       <use xlink:href="#DejaVuSans-51"/>
       <use x="63.623047" xlink:href="#DejaVuSans-48"/>
       <use x="127.246094" xlink:href="#DejaVuSans-48"/>
      </g>
     </g>
    </g>
    <g id="xtick_3">
     <g id="line2d_5">
      <path clip-path="url(#p3f2165cd36)" d="M 163.108333 206.44 
L 163.108333 10.8 
" style="fill:none;stroke:#808080;stroke-dasharray:0.8,1.32;stroke-dashoffset:0;stroke-width:0.8;"/>
     </g>
     <g id="line2d_6">
      <g>
       <use style="stroke:#000000;stroke-width:0.8;" x="163.108333" xlink:href="#m748aa05523" y="206.44"/>
      </g>
     </g>
     <g id="text_3">
      <!-- 400 -->
      <defs>
       <path d="M 37.796875 64.3125 
L 12.890625 25.390625 
L 37.796875 25.390625 
z
M 35.203125 72.90625 
L 47.609375 72.90625 
L 47.609375 25.390625 
L 58.015625 25.390625 
L 58.015625 17.1875 
L 47.609375 17.1875 
L 47.609375 0 
L 37.796875 0 
L 37.796875 17.1875 
L 4.890625 17.1875 
L 4.890625 26.703125 
z
" id="DejaVuSans-52"/>
      </defs>
      <g transform="translate(153.564583 221.038437)scale(0.1 -0.1)">
       <use xlink:href="#DejaVuSans-52"/>
       <use x="63.623047" xlink:href="#DejaVuSans-48"/>
       <use x="127.246094" xlink:href="#DejaVuSans-48"/>
      </g>
     </g>
    </g>
    <g id="xtick_4">
     <g id="line2d_7">
      <path clip-path="url(#p3f2165cd36)" d="M 207.2575 206.44 
L 207.2575 10.8 
" style="fill:none;stroke:#808080;stroke-dasharray:0.8,1.32;stroke-dashoffset:0;stroke-width:0.8;"/>
     </g>
     <g id="line2d_8">
      <g>
       <use style="stroke:#000000;stroke-width:0.8;" x="207.2575" xlink:href="#m748aa05523" y="206.44"/>
      </g>
     </g>
     <g id="text_4">
      <!-- 500 -->
      <defs>
       <path d="M 10.796875 72.90625 
L 49.515625 72.90625 
L 49.515625 64.59375 
L 19.828125 64.59375 
L 19.828125 46.734375 
Q 21.96875 47.46875 24.109375 47.828125 
Q 26.265625 48.1875 28.421875 48.1875 
Q 40.625 48.1875 47.75 41.5 
Q 54.890625 34.8125 54.890625 23.390625 
Q 54.890625 11.625 47.5625 5.09375 
Q 40.234375 -1.421875 26.90625 -1.421875 
Q 22.3125 -1.421875 17.546875 -0.640625 
Q 12.796875 0.140625 7.71875 1.703125 
L 7.71875 11.625 
Q 12.109375 9.234375 16.796875 8.0625 
Q 21.484375 6.890625 26.703125 6.890625 
Q 35.15625 6.890625 40.078125 11.328125 
Q 45.015625 15.765625 45.015625 23.390625 
Q 45.015625 31 40.078125 35.4375 
Q 35.15625 39.890625 26.703125 39.890625 
Q 22.75 39.890625 18.8125 39.015625 
Q 14.890625 38.140625 10.796875 36.28125 
z
" id="DejaVuSans-53"/>
      </defs>
      <g transform="translate(197.71375 221.038437)scale(0.1 -0.1)">
       <use xlink:href="#DejaVuSans-53"/>
       <use x="63.623047" xlink:href="#DejaVuSans-48"/>
       <use x="127.246094" xlink:href="#DejaVuSans-48"/>
      </g>
     </g>
    </g>
    <g id="xtick_5">
     <g id="line2d_9">
      <path clip-path="url(#p3f2165cd36)" d="M 251.406667 206.44 
L 251.406667 10.8 
" style="fill:none;stroke:#808080;stroke-dasharray:0.8,1.32;stroke-dashoffset:0;stroke-width:0.8;"/>
     </g>
     <g id="line2d_10">
      <g>
       <use style="stroke:#000000;stroke-width:0.8;" x="251.406667" xlink:href="#m748aa05523" y="206.44"/>
      </g>
     </g>
     <g id="text_5">
      <!-- 600 -->
      <defs>
       <path d="M 33.015625 40.375 
Q 26.375 40.375 22.484375 35.828125 
Q 18.609375 31.296875 18.609375 23.390625 
Q 18.609375 15.53125 22.484375 10.953125 
Q 26.375 6.390625 33.015625 6.390625 
Q 39.65625 6.390625 43.53125 10.953125 
Q 47.40625 15.53125 47.40625 23.390625 
Q 47.40625 31.296875 43.53125 35.828125 
Q 39.65625 40.375 33.015625 40.375 
z
M 52.59375 71.296875 
L 52.59375 62.3125 
Q 48.875 64.0625 45.09375 64.984375 
Q 41.3125 65.921875 37.59375 65.921875 
Q 27.828125 65.921875 22.671875 59.328125 
Q 17.53125 52.734375 16.796875 39.40625 
Q 19.671875 43.65625 24.015625 45.921875 
Q 28.375 48.1875 33.59375 48.1875 
Q 44.578125 48.1875 50.953125 41.515625 
Q 57.328125 34.859375 57.328125 23.390625 
Q 57.328125 12.15625 50.6875 5.359375 
Q 44.046875 -1.421875 33.015625 -1.421875 
Q 20.359375 -1.421875 13.671875 8.265625 
Q 6.984375 17.96875 6.984375 36.375 
Q 6.984375 53.65625 15.1875 63.9375 
Q 23.390625 74.21875 37.203125 74.21875 
Q 40.921875 74.21875 44.703125 73.484375 
Q 48.484375 72.75 52.59375 71.296875 
z
" id="DejaVuSans-54"/>
      </defs>
      <g transform="translate(241.862917 221.038437)scale(0.1 -0.1)">
       <use xlink:href="#DejaVuSans-54"/>
       <use x="63.623047" xlink:href="#DejaVuSans-48"/>
       <use x="127.246094" xlink:href="#DejaVuSans-48"/>
      </g>
     </g>
    </g>
    <g id="xtick_6">
     <g id="line2d_11">
      <path clip-path="url(#p3f2165cd36)" d="M 295.555833 206.44 
L 295.555833 10.8 
" style="fill:none;stroke:#808080;stroke-dasharray:0.8,1.32;stroke-dashoffset:0;stroke-width:0.8;"/>
     </g>
     <g id="line2d_12">
      <g>
       <use style="stroke:#000000;stroke-width:0.8;" x="295.555833" xlink:href="#m748aa05523" y="206.44"/>
      </g>
     </g>
     <g id="text_6">
      <!-- 700 -->
      <defs>
       <path d="M 8.203125 72.90625 
L 55.078125 72.90625 
L 55.078125 68.703125 
L 28.609375 0 
L 18.3125 0 
L 43.21875 64.59375 
L 8.203125 64.59375 
z
" id="DejaVuSans-55"/>
      </defs>
      <g transform="translate(286.012083 221.038437)scale(0.1 -0.1)">
       <use xlink:href="#DejaVuSans-55"/>
       <use x="63.623047" xlink:href="#DejaVuSans-48"/>
       <use x="127.246094" xlink:href="#DejaVuSans-48"/>
      </g>
     </g>
    </g>
    <g id="xtick_7">
     <g id="line2d_13">
      <path clip-path="url(#p3f2165cd36)" d="M 339.705 206.44 
L 339.705 10.8 
" style="fill:none;stroke:#808080;stroke-dasharray:0.8,1.32;stroke-dashoffset:0;stroke-width:0.8;"/>
     </g>
     <g id="line2d_14">
      <g>
       <use style="stroke:#000000;stroke-width:0.8;" x="339.705" xlink:href="#m748aa05523" y="206.44"/>
      </g>
     </g>
     <g id="text_7">
      <!-- 800 -->
      <defs>
       <path d="M 31.78125 34.625 
Q 24.75 34.625 20.71875 30.859375 
Q 16.703125 27.09375 16.703125 20.515625 
Q 16.703125 13.921875 20.71875 10.15625 
Q 24.75 6.390625 31.78125 6.390625 
Q 38.8125 6.390625 42.859375 10.171875 
Q 46.921875 13.96875 46.921875 20.515625 
Q 46.921875 27.09375 42.890625 30.859375 
Q 38.875 34.625 31.78125 34.625 
z
M 21.921875 38.8125 
Q 15.578125 40.375 12.03125 44.71875 
Q 8.5 49.078125 8.5 55.328125 
Q 8.5 64.0625 14.71875 69.140625 
Q 20.953125 74.21875 31.78125 74.21875 
Q 42.671875 74.21875 48.875 69.140625 
Q 55.078125 64.0625 55.078125 55.328125 
Q 55.078125 49.078125 51.53125 44.71875 
Q 48 40.375 41.703125 38.8125 
Q 48.828125 37.15625 52.796875 32.3125 
Q 56.78125 27.484375 56.78125 20.515625 
Q 56.78125 9.90625 50.3125 4.234375 
Q 43.84375 -1.421875 31.78125 -1.421875 
Q 19.734375 -1.421875 13.25 4.234375 
Q 6.78125 9.90625 6.78125 20.515625 
Q 6.78125 27.484375 10.78125 32.3125 
Q 14.796875 37.15625 21.921875 38.8125 
z
M 18.3125 54.390625 
Q 18.3125 48.734375 21.84375 45.5625 
Q 25.390625 42.390625 31.78125 42.390625 
Q 38.140625 42.390625 41.71875 45.5625 
Q 45.3125 48.734375 45.3125 54.390625 
Q 45.3125 60.0625 41.71875 63.234375 
Q 38.140625 66.40625 31.78125 66.40625 
Q 25.390625 66.40625 21.84375 63.234375 
Q 18.3125 60.0625 18.3125 54.390625 
z
" id="DejaVuSans-56"/>
      </defs>
      <g transform="translate(330.16125 221.038437)scale(0.1 -0.1)">
       <use xlink:href="#DejaVuSans-56"/>
       <use x="63.623047" xlink:href="#DejaVuSans-48"/>
       <use x="127.246094" xlink:href="#DejaVuSans-48"/>
      </g>
     </g>
    </g>
    <g id="text_8">
     <!-- AIC -->
     <defs>
      <path d="M 34.1875 63.1875 
L 20.796875 26.90625 
L 47.609375 26.90625 
z
M 28.609375 72.90625 
L 39.796875 72.90625 
L 67.578125 0 
L 57.328125 0 
L 50.6875 18.703125 
L 17.828125 18.703125 
L 11.1875 0 
L 0.78125 0 
z
" id="DejaVuSans-65"/>
      <path d="M 9.8125 72.90625 
L 19.671875 72.90625 
L 19.671875 0 
L 9.8125 0 
z
" id="DejaVuSans-73"/>
      <path d="M 64.40625 67.28125 
L 64.40625 56.890625 
Q 59.421875 61.53125 53.78125 63.8125 
Q 48.140625 66.109375 41.796875 66.109375 
Q 29.296875 66.109375 22.65625 58.46875 
Q 16.015625 50.828125 16.015625 36.375 
Q 16.015625 21.96875 22.65625 14.328125 
Q 29.296875 6.6875 41.796875 6.6875 
Q 48.140625 6.6875 53.78125 8.984375 
Q 59.421875 11.28125 64.40625 15.921875 
L 64.40625 5.609375 
Q 59.234375 2.09375 53.4375 0.328125 
Q 47.65625 -1.421875 41.21875 -1.421875 
Q 24.65625 -1.421875 15.125 8.703125 
Q 5.609375 18.84375 5.609375 36.375 
Q 5.609375 53.953125 15.125 64.078125 
Q 24.65625 74.21875 41.21875 74.21875 
Q 47.75 74.21875 53.53125 72.484375 
Q 59.328125 70.75 64.40625 67.28125 
z
" id="DejaVuSans-67"/>
     </defs>
     <g transform="translate(195.516094 237.755937)scale(0.14 -0.14)">
      <use xlink:href="#DejaVuSans-65"/>
      <use x="68.408203" xlink:href="#DejaVuSans-73"/>
      <use x="97.900391" xlink:href="#DejaVuSans-67"/>
     </g>
    </g>
   </g>
   <g id="matplotlib.axis_2">
    <g id="ytick_1">
     <g id="line2d_15">
      <defs>
       <path d="M 0 0 
L -3.5 0 
" id="md606907733" style="stroke:#000000;stroke-width:0.8;"/>
      </defs>
      <g>
       <use style="stroke:#000000;stroke-width:0.8;" x="74.81" xlink:href="#md606907733" y="43.406667"/>
      </g>
     </g>
     <g id="text_9">
      <!-- LP -->
      <defs>
       <path d="M 9.8125 72.90625 
L 19.671875 72.90625 
L 19.671875 8.296875 
L 55.171875 8.296875 
L 55.171875 0 
L 9.8125 0 
z
" id="DejaVuSans-76"/>
       <path d="M 19.671875 64.796875 
L 19.671875 37.40625 
L 32.078125 37.40625 
Q 38.96875 37.40625 42.71875 40.96875 
Q 46.484375 44.53125 46.484375 51.125 
Q 46.484375 57.671875 42.71875 61.234375 
Q 38.96875 64.796875 32.078125 64.796875 
z
M 9.8125 72.90625 
L 32.078125 72.90625 
Q 44.34375 72.90625 50.609375 67.359375 
Q 56.890625 61.8125 56.890625 51.125 
Q 56.890625 40.328125 50.609375 34.8125 
Q 44.34375 29.296875 32.078125 29.296875 
L 19.671875 29.296875 
L 19.671875 0 
L 9.8125 0 
z
" id="DejaVuSans-80"/>
      </defs>
      <g transform="translate(56.208438 47.205885)scale(0.1 -0.1)">
       <use xlink:href="#DejaVuSans-76"/>
       <use x="55.712891" xlink:href="#DejaVuSans-80"/>
      </g>
     </g>
    </g>
    <g id="ytick_2">
     <g id="line2d_16">
      <g>
       <use style="stroke:#000000;stroke-width:0.8;" x="74.81" xlink:href="#md606907733" y="108.62"/>
      </g>
     </g>
     <g id="text_10">
      <!-- PC -->
      <g transform="translate(54.7975 112.419219)scale(0.1 -0.1)">
       <use xlink:href="#DejaVuSans-80"/>
       <use x="60.302734" xlink:href="#DejaVuSans-67"/>
      </g>
     </g>
    </g>
    <g id="ytick_3">
     <g id="line2d_17">
      <g>
       <use style="stroke:#000000;stroke-width:0.8;" x="74.81" xlink:href="#md606907733" y="173.833333"/>
      </g>
     </g>
     <g id="text_11">
      <!-- PC + LP -->
      <defs>
       <path id="DejaVuSans-32"/>
       <path d="M 46 62.703125 
L 46 35.5 
L 73.1875 35.5 
L 73.1875 27.203125 
L 46 27.203125 
L 46 0 
L 37.796875 0 
L 37.796875 27.203125 
L 10.59375 27.203125 
L 10.59375 35.5 
L 37.796875 35.5 
L 37.796875 62.703125 
z
" id="DejaVuSans-43"/>
      </defs>
      <g transform="translate(28.46 177.632552)scale(0.1 -0.1)">
       <use xlink:href="#DejaVuSans-80"/>
       <use x="60.302734" xlink:href="#DejaVuSans-67"/>
       <use x="130.126953" xlink:href="#DejaVuSans-32"/>
       <use x="161.914062" xlink:href="#DejaVuSans-43"/>
       <use x="245.703125" xlink:href="#DejaVuSans-32"/>
       <use x="277.490234" xlink:href="#DejaVuSans-76"/>
       <use x="333.203125" xlink:href="#DejaVuSans-80"/>
      </g>
     </g>
    </g>
    <g id="text_12">
     <!-- Model -->
     <defs>
      <path d="M 9.8125 72.90625 
L 24.515625 72.90625 
L 43.109375 23.296875 
L 61.8125 72.90625 
L 76.515625 72.90625 
L 76.515625 0 
L 66.890625 0 
L 66.890625 64.015625 
L 48.09375 14.015625 
L 38.1875 14.015625 
L 19.390625 64.015625 
L 19.390625 0 
L 9.8125 0 
z
" id="DejaVuSans-77"/>
      <path d="M 30.609375 48.390625 
Q 23.390625 48.390625 19.1875 42.75 
Q 14.984375 37.109375 14.984375 27.296875 
Q 14.984375 17.484375 19.15625 11.84375 
Q 23.34375 6.203125 30.609375 6.203125 
Q 37.796875 6.203125 41.984375 11.859375 
Q 46.1875 17.53125 46.1875 27.296875 
Q 46.1875 37.015625 41.984375 42.703125 
Q 37.796875 48.390625 30.609375 48.390625 
z
M 30.609375 56 
Q 42.328125 56 49.015625 48.375 
Q 55.71875 40.765625 55.71875 27.296875 
Q 55.71875 13.875 49.015625 6.21875 
Q 42.328125 -1.421875 30.609375 -1.421875 
Q 18.84375 -1.421875 12.171875 6.21875 
Q 5.515625 13.875 5.515625 27.296875 
Q 5.515625 40.765625 12.171875 48.375 
Q 18.84375 56 30.609375 56 
z
" id="DejaVuSans-111"/>
      <path d="M 45.40625 46.390625 
L 45.40625 75.984375 
L 54.390625 75.984375 
L 54.390625 0 
L 45.40625 0 
L 45.40625 8.203125 
Q 42.578125 3.328125 38.25 0.953125 
Q 33.9375 -1.421875 27.875 -1.421875 
Q 17.96875 -1.421875 11.734375 6.484375 
Q 5.515625 14.40625 5.515625 27.296875 
Q 5.515625 40.1875 11.734375 48.09375 
Q 17.96875 56 27.875 56 
Q 33.9375 56 38.25 53.625 
Q 42.578125 51.265625 45.40625 46.390625 
z
M 14.796875 27.296875 
Q 14.796875 17.390625 18.875 11.75 
Q 22.953125 6.109375 30.078125 6.109375 
Q 37.203125 6.109375 41.296875 11.75 
Q 45.40625 17.390625 45.40625 27.296875 
Q 45.40625 37.203125 41.296875 42.84375 
Q 37.203125 48.484375 30.078125 48.484375 
Q 22.953125 48.484375 18.875 42.84375 
Q 14.796875 37.203125 14.796875 27.296875 
z
" id="DejaVuSans-100"/>
      <path d="M 56.203125 29.59375 
L 56.203125 25.203125 
L 14.890625 25.203125 
Q 15.484375 15.921875 20.484375 11.0625 
Q 25.484375 6.203125 34.421875 6.203125 
Q 39.59375 6.203125 44.453125 7.46875 
Q 49.3125 8.734375 54.109375 11.28125 
L 54.109375 2.78125 
Q 49.265625 0.734375 44.1875 -0.34375 
Q 39.109375 -1.421875 33.890625 -1.421875 
Q 20.796875 -1.421875 13.15625 6.1875 
Q 5.515625 13.8125 5.515625 26.8125 
Q 5.515625 40.234375 12.765625 48.109375 
Q 20.015625 56 32.328125 56 
Q 43.359375 56 49.78125 48.890625 
Q 56.203125 41.796875 56.203125 29.59375 
z
M 47.21875 32.234375 
Q 47.125 39.59375 43.09375 43.984375 
Q 39.0625 48.390625 32.421875 48.390625 
Q 24.90625 48.390625 20.390625 44.140625 
Q 15.875 39.890625 15.1875 32.171875 
z
" id="DejaVuSans-101"/>
      <path d="M 9.421875 75.984375 
L 18.40625 75.984375 
L 18.40625 0 
L 9.421875 0 
z
" id="DejaVuSans-108"/>
     </defs>
     <g transform="translate(21.548437 129.638594)rotate(-90)scale(0.14 -0.14)">
      <use xlink:href="#DejaVuSans-77"/>
      <use x="86.279297" xlink:href="#DejaVuSans-111"/>
      <use x="147.460938" xlink:href="#DejaVuSans-100"/>
      <use x="210.9375" xlink:href="#DejaVuSans-101"/>
      <use x="272.460938" xlink:href="#DejaVuSans-108"/>
     </g>
    </g>
   </g>
   <g id="line2d_18">
    <path clip-path="url(#p3f2165cd36)" d="M 220.315397 43.406667 
L 294.295999 43.406667 
" style="fill:none;stroke:#7f7f7f;stroke-linecap:square;stroke-width:1.5;"/>
   </g>
   <g id="line2d_19">
    <path clip-path="url(#p3f2165cd36)" d="M 263.284087 43.406667 
L 292.247274 43.406667 
" style="fill:none;stroke:#7f7f7f;stroke-linecap:square;stroke-width:4.5;"/>
   </g>
   <g id="line2d_20">
    <path clip-path="url(#p3f2165cd36)" d="M 136.967158 108.62 
L 294.289958 108.62 
" style="fill:none;stroke:#7f7f7f;stroke-linecap:square;stroke-width:1.5;"/>
   </g>
   <g id="line2d_21">
    <path clip-path="url(#p3f2165cd36)" d="M 223.837629 108.62 
L 285.156572 108.62 
" style="fill:none;stroke:#7f7f7f;stroke-linecap:square;stroke-width:4.5;"/>
   </g>
   <g id="line2d_22">
    <path clip-path="url(#p3f2165cd36)" d="M 83.636561 173.833333 
L 294.961573 173.833333 
" style="fill:none;stroke:#7f7f7f;stroke-linecap:square;stroke-width:1.5;"/>
   </g>
   <g id="line2d_23">
    <path clip-path="url(#p3f2165cd36)" d="M 197.364208 173.833333 
L 274.100372 173.833333 
" style="fill:none;stroke:#7f7f7f;stroke-linecap:square;stroke-width:4.5;"/>
   </g>
   <g id="patch_3">
    <path d="M 74.81 206.44 
L 74.81 10.8 
" style="fill:none;stroke:#000000;stroke-linecap:square;stroke-linejoin:miter;stroke-width:0.8;"/>
   </g>
   <g id="patch_4">
    <path d="M 74.81 206.44 
L 339.705 206.44 
" style="fill:none;stroke:#000000;stroke-linecap:square;stroke-linejoin:miter;stroke-width:0.8;"/>
   </g>
   <g id="PathCollection_1">
    <defs>
     <path d="M 0 1.5 
C 0.397805 1.5 0.77937 1.341951 1.06066 1.06066 
C 1.341951 0.77937 1.5 0.397805 1.5 0 
C 1.5 -0.397805 1.341951 -0.77937 1.06066 -1.06066 
C 0.77937 -1.341951 0.397805 -1.5 0 -1.5 
C -0.397805 -1.5 -0.77937 -1.341951 -1.06066 -1.06066 
C -1.341951 -0.77937 -1.5 -0.397805 -1.5 0 
C -1.5 0.397805 -1.341951 0.77937 -1.06066 1.06066 
C -0.77937 1.341951 -0.397805 1.5 0 1.5 
z
" id="me9a7b90a3d" style="stroke:#ffffff;"/>
    </defs>
    <g clip-path="url(#p3f2165cd36)">
     <use style="fill:#ffffff;stroke:#ffffff;" x="284.553991" xlink:href="#me9a7b90a3d" y="43.406667"/>
    </g>
   </g>
   <g id="PathCollection_2">
    <g clip-path="url(#p3f2165cd36)">
     <use style="fill:#ffffff;stroke:#ffffff;" x="264.967461" xlink:href="#me9a7b90a3d" y="108.62"/>
    </g>
   </g>
   <g id="PathCollection_3">
    <g clip-path="url(#p3f2165cd36)">
     <use style="fill:#ffffff;stroke:#ffffff;" x="246.690405" xlink:href="#me9a7b90a3d" y="173.833333"/>
    </g>
   </g>
   <g id="line2d_24">
    <path clip-path="url(#p3f2165cd36)" d="M 292.530371 206.44 
L 292.530371 10.8 
" style="fill:none;stroke:#ff0000;stroke-dasharray:5.55,2.4;stroke-dashoffset:0;stroke-width:1.5;"/>
   </g>
   <g id="legend_1">
    <g id="patch_5">
     <path d="M 81.81 33.478125 
L 189.524063 33.478125 
Q 191.524063 33.478125 191.524063 31.478125 
L 191.524063 17.8 
Q 191.524063 15.8 189.524063 15.8 
L 81.81 15.8 
Q 79.81 15.8 79.81 17.8 
L 79.81 31.478125 
Q 79.81 33.478125 81.81 33.478125 
z
" style="fill:#ffffff;opacity:0.8;stroke:#cccccc;stroke-linejoin:miter;"/>
    </g>
    <g id="line2d_25">
     <path d="M 83.81 23.898437 
L 103.81 23.898437 
" style="fill:none;stroke:#ff0000;stroke-dasharray:5.55,2.4;stroke-dashoffset:0;stroke-width:1.5;"/>
    </g>
    <g id="line2d_26"/>
    <g id="text_13">
     <!-- Random model -->
     <defs>
      <path d="M 44.390625 34.1875 
Q 47.5625 33.109375 50.5625 29.59375 
Q 53.5625 26.078125 56.59375 19.921875 
L 66.609375 0 
L 56 0 
L 46.6875 18.703125 
Q 43.0625 26.03125 39.671875 28.421875 
Q 36.28125 30.8125 30.421875 30.8125 
L 19.671875 30.8125 
L 19.671875 0 
L 9.8125 0 
L 9.8125 72.90625 
L 32.078125 72.90625 
Q 44.578125 72.90625 50.734375 67.671875 
Q 56.890625 62.453125 56.890625 51.90625 
Q 56.890625 45.015625 53.6875 40.46875 
Q 50.484375 35.9375 44.390625 34.1875 
z
M 19.671875 64.796875 
L 19.671875 38.921875 
L 32.078125 38.921875 
Q 39.203125 38.921875 42.84375 42.21875 
Q 46.484375 45.515625 46.484375 51.90625 
Q 46.484375 58.296875 42.84375 61.546875 
Q 39.203125 64.796875 32.078125 64.796875 
z
" id="DejaVuSans-82"/>
      <path d="M 34.28125 27.484375 
Q 23.390625 27.484375 19.1875 25 
Q 14.984375 22.515625 14.984375 16.5 
Q 14.984375 11.71875 18.140625 8.90625 
Q 21.296875 6.109375 26.703125 6.109375 
Q 34.1875 6.109375 38.703125 11.40625 
Q 43.21875 16.703125 43.21875 25.484375 
L 43.21875 27.484375 
z
M 52.203125 31.203125 
L 52.203125 0 
L 43.21875 0 
L 43.21875 8.296875 
Q 40.140625 3.328125 35.546875 0.953125 
Q 30.953125 -1.421875 24.3125 -1.421875 
Q 15.921875 -1.421875 10.953125 3.296875 
Q 6 8.015625 6 15.921875 
Q 6 25.140625 12.171875 29.828125 
Q 18.359375 34.515625 30.609375 34.515625 
L 43.21875 34.515625 
L 43.21875 35.40625 
Q 43.21875 41.609375 39.140625 45 
Q 35.0625 48.390625 27.6875 48.390625 
Q 23 48.390625 18.546875 47.265625 
Q 14.109375 46.140625 10.015625 43.890625 
L 10.015625 52.203125 
Q 14.9375 54.109375 19.578125 55.046875 
Q 24.21875 56 28.609375 56 
Q 40.484375 56 46.34375 49.84375 
Q 52.203125 43.703125 52.203125 31.203125 
z
" id="DejaVuSans-97"/>
      <path d="M 54.890625 33.015625 
L 54.890625 0 
L 45.90625 0 
L 45.90625 32.71875 
Q 45.90625 40.484375 42.875 44.328125 
Q 39.84375 48.1875 33.796875 48.1875 
Q 26.515625 48.1875 22.3125 43.546875 
Q 18.109375 38.921875 18.109375 30.90625 
L 18.109375 0 
L 9.078125 0 
L 9.078125 54.6875 
L 18.109375 54.6875 
L 18.109375 46.1875 
Q 21.34375 51.125 25.703125 53.5625 
Q 30.078125 56 35.796875 56 
Q 45.21875 56 50.046875 50.171875 
Q 54.890625 44.34375 54.890625 33.015625 
z
" id="DejaVuSans-110"/>
      <path d="M 52 44.1875 
Q 55.375 50.25 60.0625 53.125 
Q 64.75 56 71.09375 56 
Q 79.640625 56 84.28125 50.015625 
Q 88.921875 44.046875 88.921875 33.015625 
L 88.921875 0 
L 79.890625 0 
L 79.890625 32.71875 
Q 79.890625 40.578125 77.09375 44.375 
Q 74.3125 48.1875 68.609375 48.1875 
Q 61.625 48.1875 57.5625 43.546875 
Q 53.515625 38.921875 53.515625 30.90625 
L 53.515625 0 
L 44.484375 0 
L 44.484375 32.71875 
Q 44.484375 40.625 41.703125 44.40625 
Q 38.921875 48.1875 33.109375 48.1875 
Q 26.21875 48.1875 22.15625 43.53125 
Q 18.109375 38.875 18.109375 30.90625 
L 18.109375 0 
L 9.078125 0 
L 9.078125 54.6875 
L 18.109375 54.6875 
L 18.109375 46.1875 
Q 21.1875 51.21875 25.484375 53.609375 
Q 29.78125 56 35.6875 56 
Q 41.65625 56 45.828125 52.96875 
Q 50 49.953125 52 44.1875 
z
" id="DejaVuSans-109"/>
     </defs>
     <g transform="translate(111.81 27.398437)scale(0.1 -0.1)">
      <use xlink:href="#DejaVuSans-82"/>
      <use x="67.232422" xlink:href="#DejaVuSans-97"/>
      <use x="128.511719" xlink:href="#DejaVuSans-110"/>
      <use x="191.890625" xlink:href="#DejaVuSans-100"/>
      <use x="255.367188" xlink:href="#DejaVuSans-111"/>
      <use x="316.548828" xlink:href="#DejaVuSans-109"/>
      <use x="413.960938" xlink:href="#DejaVuSans-32"/>
      <use x="445.748047" xlink:href="#DejaVuSans-109"/>
      <use x="543.160156" xlink:href="#DejaVuSans-111"/>
      <use x="604.341797" xlink:href="#DejaVuSans-100"/>
      <use x="667.818359" xlink:href="#DejaVuSans-101"/>
      <use x="729.341797" xlink:href="#DejaVuSans-108"/>
     </g>
    </g>
   </g>
  </g>
 </g>
 <defs>
  <clipPath id="p3f2165cd36">
   <rect height="195.64" width="264.895" x="74.81" y="10.8"/>
  </clipPath>
 </defs>
</svg>
